<?xml version="1.0" encoding="utf-8"?>
<!-- Generator: Adobe Illustrator 28.2.0, SVG Export Plug-In . SVG Version: 6.00 Build 0)  -->
<svg version="1.1" xmlns="http://www.w3.org/2000/svg" xmlns:xlink="http://www.w3.org/1999/xlink" x="0px" y="0px"
	 viewBox="0 0 500 500" style="enable-background:new 0 0 500 500;" xml:space="preserve">
<style type="text/css">
	.st0{fill:#92E3A9;}
	.st1{opacity:0.8;fill:#FFFFFF;}
	.st2{fill:none;stroke:#263238;stroke-width:2;stroke-miterlimit:10;}
	.st3{fill:#92E3A9;stroke:#263238;stroke-miterlimit:10;}
	.st4{fill:none;stroke:#263238;stroke-width:0.5;stroke-miterlimit:10;}
	.st5{fill:none;stroke:#263238;stroke-linecap:round;stroke-linejoin:round;stroke-miterlimit:10;}
	.st6{fill:#FFFFFF;stroke:#263238;stroke-linecap:round;stroke-linejoin:round;stroke-miterlimit:10;}
	.st7{fill:#92E3A9;stroke:#263238;stroke-linecap:round;stroke-linejoin:round;stroke-miterlimit:10;}
	.st8{fill:#A6A6A6;stroke:#263238;stroke-linecap:round;stroke-linejoin:round;stroke-miterlimit:10;}
	.st9{fill:#263238;}
	.st10{fill:#FFFFFF;stroke:#263238;stroke-width:0.75;stroke-linecap:round;stroke-linejoin:round;stroke-miterlimit:10;}
	.st11{fill:none;stroke:#263238;stroke-width:0.75;stroke-linecap:round;stroke-linejoin:round;stroke-miterlimit:10;}
	.st12{fill:#D1D1D1;stroke:#263238;stroke-linecap:round;stroke-linejoin:round;stroke-miterlimit:10;}
	.st13{fill:#263238;stroke:#263238;stroke-linecap:round;stroke-linejoin:round;stroke-miterlimit:10;}
	.st14{fill:#009A6E;stroke:#263238;stroke-linecap:round;stroke-linejoin:round;stroke-miterlimit:10;}
</style>
<g id="Background_Simple">
	<g>
		<path class="st0" d="M485.6,269.7c0.1-1.1,0.2-2.1,0.3-3.2c1.5-11.5,8.5-97.9-100-206.5C269.3-56.8,141.9,74.4,119.9,108.7
			s-28.4,86.9-45.4,52.3c-10.5-21.4,16.9-48.2-21.9-37c-24.9,7.2-71.1,70.8-33.2,180s144.3,192.6,246.6,186.5
			c131.5-7.8,209-103.2,202.8-110.3c-6.1-7.1-55.1,14.1-44.4-0.7C434.9,365,482.6,310.3,485.6,269.7z"/>
		<path class="st1" d="M485.6,269.7c0.1-1.1,0.2-2.1,0.3-3.2c1.5-11.5,8.5-97.9-100-206.5C269.3-56.8,141.9,74.4,119.9,108.7
			s-28.4,86.9-45.4,52.3c-10.5-21.4,16.9-48.2-21.9-37c-24.9,7.2-71.1,70.8-33.2,180s144.3,192.6,246.6,186.5
			c131.5-7.8,209-103.2,202.8-110.3c-6.1-7.1-55.1,14.1-44.4-0.7C434.9,365,482.6,310.3,485.6,269.7z"/>
	</g>
</g>
<g id="Plant">
	<g>
		<g>
			<line class="st2" x1="69.1" y1="327.5" x2="78.9" y2="421.6"/>
			<g>
				<g>
					<line class="st2" x1="78.3" y1="411.2" x2="70.8" y2="403.3"/>
					<path class="st3" d="M73.1,405.6c0,0,0.2-3.5-3-6.3c-1.9-1.7-12-5.9-12.9-2.4C56.2,400.8,66.5,408.4,73.1,405.6z"/>
					<line class="st4" x1="73.1" y1="405.6" x2="63.5" y2="399.7"/>
				</g>
				<g>
					<line class="st2" x1="75.2" y1="382.1" x2="67.8" y2="374.2"/>
					<path class="st3" d="M70.1,376.6c0,0,0.2-3.5-3-6.3c-1.9-1.7-12-5.9-12.9-2.4C53.1,371.7,63.4,379.3,70.1,376.6z"/>
					<line class="st4" x1="70.1" y1="376.6" x2="60.5" y2="370.6"/>
				</g>
				<g>
					<line class="st2" x1="72.2" y1="352.8" x2="64.7" y2="345"/>
					<path class="st3" d="M67,347.3c0,0,0.2-3.5-3-6.3c-1.9-1.7-12-5.9-12.9-2.4C50.1,342.5,60.4,350,67,347.3z"/>
					<line class="st4" x1="67" y1="347.3" x2="57.4" y2="341.4"/>
				</g>
				<g>
					<line class="st2" x1="76.7" y1="397.1" x2="82.3" y2="387.9"/>
					<path class="st3" d="M80.6,390.7c0,0-0.9-3.4,1.6-6.8c1.5-2.1,10.5-8.3,12.2-5C96.2,382.4,87.7,391.9,80.6,390.7z"/>
					<line class="st4" x1="80.6" y1="390.7" x2="89.2" y2="382.4"/>
				</g>
				<g>
					<line class="st2" x1="74.5" y1="376.4" x2="80.2" y2="367.2"/>
					<path class="st3" d="M78.4,370c0,0-0.9-3.4,1.6-6.8c1.5-2.1,10.5-8.3,12.2-5C94,361.7,85.5,371.2,78.4,370z"/>
					<line class="st4" x1="78.4" y1="370" x2="87.1" y2="361.7"/>
				</g>
				<g>
					<line class="st2" x1="71.3" y1="346.1" x2="77" y2="336.8"/>
					<path class="st3" d="M75.3,339.6c0,0-0.9-3.4,1.6-6.8c1.5-2.1,10.5-8.3,12.2-5C90.8,331.3,82.3,340.9,75.3,339.6z"/>
					<line class="st4" x1="75.3" y1="339.6" x2="83.9" y2="331.4"/>
					<path class="st3" d="M68.9,326.7c0,0-0.9-3.4,1.6-6.8c1.5-2.1,10.5-8.3,12.2-5C84.5,318.4,76,327.9,68.9,326.7z"/>
					<line class="st4" x1="68.9" y1="326.7" x2="77.5" y2="318.4"/>
					<path class="st3" d="M69.4,327c0,0-3.4,0.6-6.6-2.3c-1.9-1.7-7.1-11.3-3.7-12.6C62.8,310.7,71.4,320.1,69.4,327z"/>
					<line class="st4" x1="69.4" y1="327" x2="62.1" y2="317.6"/>
				</g>
			</g>
		</g>
		<g>
			<line class="st2" x1="112.4" y1="349.2" x2="104.7" y2="421.7"/>
			<g>
				<g>
					<line class="st2" x1="107.2" y1="403.9" x2="101.6" y2="394.6"/>
					<path class="st3" d="M103.3,397.4c0,0,0.9-3.4-1.6-6.8c-1.5-2.1-10.5-8.3-12.2-5C87.7,389.1,96.2,398.7,103.3,397.4z"/>
					<line class="st4" x1="103.3" y1="397.4" x2="95.1" y2="389.6"/>
				</g>
				<g>
					<line class="st2" x1="110.3" y1="374.6" x2="104.6" y2="365.4"/>
					<path class="st3" d="M106.3,368.2c0,0,0.9-3.4-1.6-6.8c-1.5-2.1-10.5-8.3-12.2-5C90.7,359.9,99.3,369.5,106.3,368.2z"/>
					<line class="st4" x1="106.3" y1="368.2" x2="98.2" y2="360.4"/>
				</g>
				<g>
					<line class="st2" x1="105.5" y1="418.9" x2="113" y2="411"/>
					<path class="st3" d="M110.7,413.4c0,0-0.2-3.5,3-6.3c1.9-1.7,12-5.9,12.9-2.4C127.6,408.5,117.3,416.1,110.7,413.4z"/>
					<line class="st4" x1="110.7" y1="413.4" x2="120.8" y2="407.1"/>
				</g>
				<g>
					<line class="st2" x1="107.7" y1="398.2" x2="115.1" y2="390.3"/>
					<path class="st3" d="M112.8,392.7c0,0-0.2-3.5,3-6.3c1.9-1.7,12-5.9,12.9-2.4C129.8,387.8,119.5,395.4,112.8,392.7z"/>
					<line class="st4" x1="112.8" y1="392.7" x2="123" y2="386.4"/>
				</g>
				<g>
					<line class="st2" x1="110.8" y1="367.8" x2="118.3" y2="359.9"/>
					<path class="st3" d="M116,362.3c0,0-0.2-3.5,3-6.3c1.9-1.7,12-5.9,12.9-2.4C132.9,357.4,122.6,365,116,362.3z"/>
					<line class="st4" x1="116" y1="362.3" x2="126.1" y2="356"/>
					<path class="st3" d="M112.4,348.3c0,0-0.2-3.5,3-6.3c1.9-1.7,12-5.9,12.9-2.4C129.4,343.5,119.1,351,112.4,348.3z"/>
					<line class="st4" x1="112.4" y1="348.3" x2="122.6" y2="342"/>
					<path class="st3" d="M112.9,348.8c0,0-3.5-0.2-6-3.6c-1.5-2.1-4.7-12.5-1-13.1C109.8,331.4,116.2,342.5,112.9,348.8z"/>
					<line class="st4" x1="112.9" y1="348.8" x2="107.7" y2="338"/>
				</g>
			</g>
		</g>
		<line class="st2" x1="93.7" y1="285.1" x2="93.7" y2="421.6"/>
		<g>
			<g>
				<line class="st2" x1="93.8" y1="416.9" x2="87.2" y2="408.3"/>
				<path class="st3" d="M89.2,410.8c0,0,0.6-3.4-2.3-6.6c-1.7-1.9-11.3-7.2-12.6-3.7C72.9,404.2,82.4,412.8,89.2,410.8z"/>
				<line class="st4" x1="89.2" y1="410.8" x2="80.3" y2="403.9"/>
			</g>
			<g>
				<line class="st2" x1="93.8" y1="372.9" x2="87.2" y2="364.3"/>
				<path class="st3" d="M89.2,366.9c0,0,0.6-3.4-2.3-6.6c-1.7-1.9-11.3-7.2-12.6-3.7C72.9,360.3,82.4,368.9,89.2,366.9z"/>
				<line class="st4" x1="89.2" y1="366.9" x2="80.3" y2="360"/>
			</g>
			<g>
				<line class="st2" x1="93.8" y1="343.7" x2="87.2" y2="335.1"/>
				<path class="st3" d="M89.2,337.7c0,0,0.6-3.4-2.3-6.6c-1.7-1.9-11.3-7.2-12.6-3.7C72.9,331.1,82.4,339.7,89.2,337.7z"/>
				<line class="st4" x1="89.2" y1="337.7" x2="80.3" y2="330.7"/>
			</g>
			<g>
				<line class="st2" x1="93.8" y1="314.3" x2="87.2" y2="305.7"/>
				<path class="st3" d="M89.2,308.3c0,0,0.6-3.4-2.3-6.6c-1.7-1.9-11.3-7.2-12.6-3.7C72.9,301.7,82.4,310.3,89.2,308.3z"/>
				<line class="st4" x1="89.2" y1="308.3" x2="80.3" y2="301.4"/>
			</g>
			<g>
				<line class="st2" x1="93.7" y1="406.2" x2="100.3" y2="397.6"/>
				<path class="st3" d="M98.3,400.2c0,0-0.6-3.4,2.3-6.6c1.7-1.9,11.3-7.2,12.6-3.7C114.6,393.6,105.2,402.2,98.3,400.2z"/>
				<line class="st4" x1="98.3" y1="400.2" x2="107.7" y2="392.9"/>
			</g>
			<g>
				<line class="st2" x1="93.7" y1="376.8" x2="100.3" y2="368.2"/>
				<path class="st3" d="M98.3,370.8c0,0-0.6-3.4,2.3-6.6c1.7-1.9,11.3-7.2,12.6-3.7C114.6,364.2,105.2,372.8,98.3,370.8z"/>
				<line class="st4" x1="98.3" y1="370.8" x2="107.7" y2="363.5"/>
			</g>
			<g>
				<line class="st2" x1="93.7" y1="338" x2="100.3" y2="329.4"/>
				<path class="st3" d="M98.3,332c0,0-0.6-3.4,2.3-6.6c1.7-1.9,11.3-7.2,12.6-3.7C114.6,325.4,105.2,334,98.3,332z"/>
				<line class="st4" x1="98.3" y1="332" x2="107.7" y2="324.7"/>
			</g>
			<g>
				<line class="st2" x1="93.7" y1="307.5" x2="100.3" y2="298.9"/>
				<path class="st3" d="M98.3,301.4c0,0-0.6-3.4,2.3-6.6c1.7-1.9,11.3-7.2,12.6-3.7C114.6,294.9,105.2,303.5,98.3,301.4z"/>
				<line class="st4" x1="98.3" y1="301.4" x2="107.7" y2="294.1"/>
				<path class="st3" d="M93.3,287.9c0,0-0.6-3.4,2.3-6.6c1.7-1.9,11.3-7.2,12.6-3.7C109.6,281.3,100.2,289.9,93.3,287.9z"/>
				<line class="st4" x1="93.3" y1="287.9" x2="102.7" y2="280.6"/>
				<path class="st3" d="M93.8,288.3c0,0-3.5,0.2-6.3-3c-1.7-1.9-5.9-12-2.4-12.9C88.9,271.4,96.5,281.7,93.8,288.3z"/>
				<line class="st4" x1="93.8" y1="288.3" x2="87.5" y2="278.2"/>
			</g>
		</g>
	</g>
</g>
<g id="Table">
	<line class="st5" x1="22.9" y1="421.6" x2="465.6" y2="421.6"/>
</g>
<g id="Dish_4">
	<g>
		<circle class="st6" cx="404.6" cy="205.1" r="59.9"/>
		<g>
			<path class="st7" d="M462.3,107.8h-9.8c-3.8-4.1-9.3-6.8-15.4-6.8c-6.1,0-11.6,2.6-15.4,6.8h-10.2l4.8,17.6
				c1.6,10,10.3,17.7,20.7,17.7c10.3,0,18.9-7.4,20.7-17.2l0,0L462.3,107.8z"/>
			<circle class="st7" cx="437.1" cy="104.4" r="25.8"/>
			<circle class="st7" cx="437.1" cy="104.4" r="22.4"/>
			<path class="st6" d="M437.1,86.8c-11.6,0-21,9.4-21,21c0,2.6,0.5,5,1.3,7.3c3.8,7,11.2,11.7,19.7,11.7c8.5,0,15.9-4.7,19.7-11.7
				c0.8-2.3,1.3-4.7,1.3-7.3C458.2,96.2,448.7,86.8,437.1,86.8z"/>
		</g>
		<g>
			<path class="st7" d="M407.1,173.3c-1.3,2.3-4.3,3.1-6.6,1.8c-2.3-1.3-3.1-4.3-1.8-6.6c1.3-2.3,4.3-3.1,6.6-1.8
				C407.7,168,408.5,171,407.1,173.3z"/>
			<path class="st7" d="M411.9,179.7c-1.3,2.3-4.3,3.1-6.6,1.8c-2.3-1.3-3.1-4.3-1.8-6.6c1.3-2.3,4.3-3.1,6.6-1.8
				C412.5,174.5,413.2,177.4,411.9,179.7z"/>
			<path class="st7" d="M411.4,186.5c-1.3,2.3-4.3,3.1-6.6,1.8c-2.3-1.3-3.1-4.3-1.8-6.6c1.3-2.3,4.3-3.1,6.6-1.8
				C412,181.2,412.7,184.2,411.4,186.5z"/>
			<path class="st7" d="M416.6,163c-1.3,2.3-4.3,3.1-6.6,1.8c-2.3-1.3-3.1-4.3-1.8-6.6c1.3-2.3,4.3-3.1,6.6-1.8
				C417.2,157.7,418,160.7,416.6,163z"/>
			<path class="st7" d="M422.6,169.8c-1.3,2.3-4.3,3.1-6.6,1.8c-2.3-1.3-3.1-4.3-1.8-6.6c1.3-2.3,4.3-3.1,6.6-1.8
				C423.1,164.6,423.9,167.5,422.6,169.8z"/>
			<path class="st7" d="M409.6,156.3c-1.3,2.3-4.3,3.1-6.6,1.8c-2.3-1.3-3.1-4.3-1.8-6.6c1.3-2.3,4.3-3.1,6.6-1.8
				C410.1,151.1,410.9,154,409.6,156.3z"/>
			<path class="st7" d="M399.6,151.9c-1.3,2.3-4.3,3.1-6.6,1.8c-2.3-1.3-3.1-4.3-1.8-6.6c1.3-2.3,4.3-3.1,6.6-1.8
				C400.2,146.6,401,149.6,399.6,151.9z"/>
			<path class="st7" d="M406.3,183.4c-1.3,2.3-4.3,3.1-6.6,1.8c-2.3-1.3-3.1-4.3-1.8-6.6c1.3-2.3,4.3-3.1,6.6-1.8
				C406.8,178.2,407.6,181.1,406.3,183.4z"/>
			<path class="st7" d="M419.5,176.2c-1.3,2.3-4.3,3.1-6.6,1.8c-2.3-1.3-3.1-4.3-1.8-6.6c1.3-2.3,4.3-3.1,6.6-1.8
				C420,171,420.8,173.9,419.5,176.2z"/>
			<path class="st7" d="M411.8,167.7c-1.3,2.3-4.3,3.1-6.6,1.8c-2.3-1.3-3.1-4.3-1.8-6.6c1.3-2.3,4.3-3.1,6.6-1.8
				C412.3,162.5,413.1,165.4,411.8,167.7z"/>
			<path class="st7" d="M405.4,162.7c-1.3,2.3-4.3,3.1-6.6,1.8c-2.3-1.3-3.1-4.3-1.8-6.6c1.3-2.3,4.3-3.1,6.6-1.8
				C405.9,157.5,406.7,160.4,405.4,162.7z"/>
			<path class="st7" d="M399.6,159.1c-1.3,2.3-4.3,3.1-6.6,1.8c-2.3-1.3-3.1-4.3-1.8-6.6c1.3-2.3,4.3-3.1,6.6-1.8
				C400.2,153.9,400.9,156.8,399.6,159.1z"/>
			<path class="st7" d="M400.2,169.4c-1.3,2.3-4.3,3.1-6.6,1.8c-2.3-1.3-3.1-4.3-1.8-6.6c1.3-2.3,4.3-3.1,6.6-1.8
				C400.8,164.1,401.5,167.1,400.2,169.4z"/>
			<path class="st8" d="M414.1,167.2c-2.6-3.6-6.6-7.2-6.6-7.2l6.2-7.8c0,0-0.4-2.5-2.3-0.5c0,0-2.9,3.3-5.8,6.8
				c-1.3,1.6-2.5,3-3.7,4.2c-0.7-0.1-3.1-0.5-5.2-1.3c-2.6-1-5.1-2.4-5.5-1.3c-0.4,1.1,2.6,1.8,4.5,2.6c1.5,0.6,3.8,1.3,4.7,1.5
				c-0.8,0.7-1.5,1.3-2,1.6c-1.6,0.9-2.4,1.5-4.6,2.6c-2.2,1.1-3.5,2.9-2.3,3.1c1.2,0.2,9.7-3.8,12-6.4c2.3-2.6,2.3-2.6,2.3-2.6
				s3.1,0.5,4.4,2.8c1.3,2.3,5.8,7.5,6.5,6.3C417.3,170.3,416.7,170.8,414.1,167.2z"/>
			<path class="st7" d="M394.3,164.5c-1.3,2.3-4.3,3.1-6.6,1.8c-2.3-1.3-3.1-4.3-1.8-6.6c1.3-2.3,4.3-3.1,6.6-1.8
				C394.8,159.2,395.6,162.2,394.3,164.5z"/>
			<path class="st7" d="M400.3,178.2c-1.3,2.3-4.3,3.1-6.6,1.8c-2.3-1.3-3.1-4.3-1.8-6.6c1.3-2.3,4.3-3.1,6.6-1.8
				C400.8,173,401.6,175.9,400.3,178.2z"/>
			<path class="st7" d="M399.3,188.1c-1.3,2.3-4.3,3.1-6.6,1.8c-2.3-1.3-3.1-4.3-1.8-6.6c1.3-2.3,4.3-3.1,6.6-1.8
				C399.8,182.8,400.6,185.8,399.3,188.1z"/>
			<path class="st7" d="M394.9,194.4c-1.3,2.3-4.3,3.1-6.6,1.8c-2.3-1.3-3.1-4.3-1.8-6.6c1.3-2.3,4.3-3.1,6.6-1.8
				C395.4,189.1,396.2,192.1,394.9,194.4z"/>
			<path class="st7" d="M380.1,187.9c-1.3,2.3-4.3,3.1-6.6,1.8c-2.3-1.3-3.1-4.3-1.8-6.6c1.3-2.3,4.3-3.1,6.6-1.8
				C380.7,182.7,381.5,185.7,380.1,187.9z"/>
			<path class="st7" d="M388.3,191.4c-1.3,2.3-4.3,3.1-6.6,1.8c-2.3-1.3-3.1-4.3-1.8-6.6c1.3-2.3,4.3-3.1,6.6-1.8
				C388.9,186.1,389.6,189.1,388.3,191.4z"/>
			<path class="st7" d="M383.5,203.7c-1.3,2.3-4.3,3.1-6.6,1.8c-2.3-1.3-3.1-4.3-1.8-6.6c1.3-2.3,4.3-3.1,6.6-1.8
				C384,198.4,384.8,201.4,383.5,203.7z"/>
			<path class="st7" d="M390.9,198c-1.3,2.3-4.3,3.1-6.6,1.8c-2.3-1.3-3.1-4.3-1.8-6.6c1.3-2.3,4.3-3.1,6.6-1.8
				C391.4,192.8,392.2,195.7,390.9,198z"/>
			<path class="st7" d="M381.4,195.7c-1.3,2.3-4.3,3.1-6.6,1.8c-2.3-1.3-3.1-4.3-1.8-6.6c1.3-2.3,4.3-3.1,6.6-1.8
				C381.9,190.5,382.7,193.4,381.4,195.7z"/>
			<path class="st7" d="M392,186.7c-1.3,2.3-4.3,3.1-6.6,1.8c-2.3-1.3-3.1-4.3-1.8-6.6c1.3-2.3,4.3-3.1,6.6-1.8
				C392.6,181.5,393.4,184.4,392,186.7z"/>
			<path class="st7" d="M385.3,186.2c-1.3,2.3-4.3,3.1-6.6,1.8c-2.3-1.3-3.1-4.3-1.8-6.6c1.3-2.3,4.3-3.1,6.6-1.8
				C385.8,181,386.6,183.9,385.3,186.2z"/>
			<path class="st7" d="M410.1,175.3c-1.3,2.3-4.3,3.1-6.6,1.8c-2.3-1.3-3.1-4.3-1.8-6.6c1.3-2.3,4.3-3.1,6.6-1.8
				C410.6,170.1,411.4,173,410.1,175.3z"/>
			<path class="st7" d="M392.5,181c-1.3,2.3-4.3,3.1-6.6,1.8c-2.3-1.3-3.1-4.3-1.8-6.6c1.3-2.3,4.3-3.1,6.6-1.8
				C393,175.8,393.8,178.7,392.5,181z"/>
			<path class="st7" d="M386,166.9c-1.3,2.3-4.3,3.1-6.6,1.8c-2.3-1.3-3.1-4.3-1.8-6.6c1.3-2.3,4.3-3.1,6.6-1.8
				C386.6,161.7,387.4,164.6,386,166.9z"/>
			<path class="st7" d="M391,172.9c-1.3,2.3-4.3,3.1-6.6,1.8c-2.3-1.3-3.1-4.3-1.8-6.6c1.3-2.3,4.3-3.1,6.6-1.8
				C391.6,167.7,392.4,170.6,391,172.9z"/>
			<path class="st7" d="M381.3,179.8c-1.3,2.3-4.3,3.1-6.6,1.8c-2.3-1.3-3.1-4.3-1.8-6.6c1.3-2.3,4.3-3.1,6.6-1.8
				C381.9,174.6,382.7,177.5,381.3,179.8z"/>
			<path class="st7" d="M391.7,159c-1.3,2.3-4.3,3.1-6.6,1.8c-2.3-1.3-3.1-4.3-1.8-6.6c1.3-2.3,4.3-3.1,6.6-1.8
				C392.2,153.7,393,156.7,391.7,159z"/>
			<path class="st7" d="M387.1,179c-1.3,2.3-4.3,3.1-6.6,1.8c-2.3-1.3-3.1-4.3-1.8-6.6c1.3-2.3,4.3-3.1,6.6-1.8
				C387.7,173.7,388.5,176.7,387.1,179z"/>
			<path class="st7" d="M382,172.4c-1.3,2.3-4.3,3.1-6.6,1.8c-2.3-1.3-3.1-4.3-1.8-6.6c1.3-2.3,4.3-3.1,6.6-1.8
				C382.5,167.1,383.3,170.1,382,172.4z"/>
			<path class="st7" d="M424.5,175.2c-1.3,2.3-4.3,3.1-6.6,1.8c-2.3-1.3-3.1-4.3-1.8-6.6c1.3-2.3,4.3-3.1,6.6-1.8
				C425,170,425.8,172.9,424.5,175.2z"/>
			<path class="st7" d="M417.4,184.7c-1.3,2.3-4.3,3.1-6.6,1.8c-2.3-1.3-3.1-4.3-1.8-6.6c1.3-2.3,4.3-3.1,6.6-1.8
				C418,179.4,418.8,182.4,417.4,184.7z"/>
			<path class="st7" d="M404.9,191.8c-1.3,2.3-4.3,3.1-6.6,1.8c-2.3-1.3-3.1-4.3-1.8-6.6c1.3-2.3,4.3-3.1,6.6-1.8
				C405.5,186.6,406.3,189.5,404.9,191.8z"/>
			<path class="st7" d="M384,159c-1.3,2.3-4.3,3.1-6.6,1.8c-2.3-1.3-3.1-4.3-1.8-6.6c1.3-2.3,4.3-3.1,6.6-1.8
				C384.6,153.8,385.4,156.7,384,159z"/>
			<path class="st7" d="M393.7,168.7c-1.3,2.3-4.3,3.1-6.6,1.8c-2.3-1.3-3.1-4.3-1.8-6.6c1.3-2.3,4.3-3.1,6.6-1.8
				C394.3,163.5,395.1,166.4,393.7,168.7z"/>
			<path class="st7" d="M376.1,182.9c-1.3,2.3-4.3,3.1-6.6,1.8c-2.3-1.3-3.1-4.3-1.8-6.6c1.3-2.3,4.3-3.1,6.6-1.8
				C376.7,177.7,377.5,180.6,376.1,182.9z"/>
			<path class="st7" d="M375.4,194.1c-1.3,2.3-4.3,3.1-6.6,1.8c-2.3-1.3-3.1-4.3-1.8-6.6c1.3-2.3,4.3-3.1,6.6-1.8
				C375.9,188.9,376.7,191.8,375.4,194.1z"/>
		</g>
		<g>
			<path class="st6" d="M428.7,160.9c0,0-8.4,13.7-12.2,19.8s-9.9,10.8-7.9,12.8c2,2,16,14.3,18.9,15.7c2.9,1.5,23-27.4,24.2-29.1
				C452.9,178.4,435.1,162.1,428.7,160.9z"/>
			<path class="st6" d="M417.6,192.2c0,0.7-0.6,1.3-1.3,1.3c-0.7,0-1.3-0.6-1.3-1.3s0.6-1.3,1.3-1.3
				C417.1,190.9,417.6,191.5,417.6,192.2z"/>
			<path class="st6" d="M429.3,198c0,0.9-0.7,1.6-1.6,1.6s-1.6-0.7-1.6-1.6c0-0.9,0.7-1.6,1.6-1.6S429.3,197.2,429.3,198z"/>
			<path class="st6" d="M426.1,185.8c0,0.6-0.5,1-1,1c-0.6,0-1-0.5-1-1c0-0.6,0.5-1,1-1C425.6,184.8,426.1,185.3,426.1,185.8z"/>
			<path class="st6" d="M431.3,178c0,0.7-0.6,1.3-1.3,1.3c-0.7,0-1.3-0.6-1.3-1.3c0-0.7,0.6-1.3,1.3-1.3
				C430.7,176.6,431.3,177.2,431.3,178z"/>
			<path class="st6" d="M444.4,180.9c0,0.7-0.6,1.3-1.3,1.3s-1.3-0.6-1.3-1.3c0-0.7,0.6-1.3,1.3-1.3S444.4,180.1,444.4,180.9z"/>
			<path class="st6" d="M438.6,188.9c0,0.6-0.5,1.2-1.2,1.2s-1.2-0.5-1.2-1.2c0-0.6,0.5-1.2,1.2-1.2S438.6,188.2,438.6,188.9z"/>
			<circle class="st6" cx="424" cy="179" r="1.2"/>
			<path class="st6" d="M434.8,170.1c0,0.7-0.6,1.3-1.3,1.3c-0.7,0-1.3-0.6-1.3-1.3c0-0.7,0.6-1.3,1.3-1.3
				C434.2,168.8,434.8,169.4,434.8,170.1z"/>
			<path class="st6" d="M434.2,196.9c0,0.6-0.5,1-1,1c-0.6,0-1-0.5-1-1c0-0.6,0.5-1,1-1C433.8,195.9,434.2,196.3,434.2,196.9z"/>
		</g>
		<g>
			<path class="st6" d="M444.5,176.9c0,0-12.3,10.3-17.8,14.9c-5.5,4.6-12.8,7.1-11.5,9.7c1.3,2.6,10.7,18.6,13,20.9
				c2.3,2.3,30.4-18.7,32.1-20C462,201.1,450.2,180,444.5,176.9z"/>
			<path class="st6" d="M424.2,203.1c-0.2,0.7-1,1.1-1.7,0.8c-0.7-0.2-1.1-1-0.8-1.7c0.2-0.7,1-1.1,1.7-0.8
				C424,201.7,424.4,202.4,424.2,203.1z"/>
			<path class="st6" d="M433.4,212.3c-0.3,0.8-1.2,1.3-2,1c-0.8-0.3-1.3-1.2-1-2c0.3-0.8,1.2-1.3,2-1
				C433.2,210.6,433.7,211.5,433.4,212.3z"/>
			<path class="st6" d="M434.2,199.7c-0.2,0.5-0.8,0.8-1.3,0.6c-0.5-0.2-0.8-0.8-0.6-1.3c0.2-0.5,0.8-0.8,1.3-0.6
				C434.1,198.6,434.4,199.2,434.2,199.7z"/>
			<path class="st6" d="M441.7,193.9c-0.2,0.7-1,1.1-1.7,0.8c-0.7-0.2-1.1-1-0.8-1.7c0.2-0.7,1-1.1,1.7-0.8
				C441.5,192.5,441.9,193.2,441.7,193.9z"/>
			<path class="st6" d="M453.2,200.8c-0.2,0.7-1,1.1-1.7,0.8c-0.7-0.2-1.1-1-0.8-1.7c0.2-0.7,1-1.1,1.7-0.8
				C453,199.3,453.4,200.1,453.2,200.8z"/>
			<path class="st6" d="M445.1,206.5c-0.2,0.6-0.9,0.9-1.5,0.7c-0.6-0.2-0.9-0.9-0.7-1.5c0.2-0.6,0.9-0.9,1.5-0.7
				C445,205.3,445.3,205.9,445.1,206.5z"/>
			<path class="st6" d="M435.5,192.9c-0.2,0.6-0.9,0.9-1.5,0.7c-0.6-0.2-0.9-0.9-0.7-1.5c0.2-0.6,0.9-0.9,1.5-0.7
				C435.4,191.7,435.7,192.3,435.5,192.9z"/>
			<path class="st6" d="M447.4,187.5c-0.2,0.7-1,1.1-1.7,0.8s-1.1-1-0.8-1.7c0.2-0.7,1-1.1,1.7-0.8
				C447.3,186.1,447.7,186.8,447.4,187.5z"/>
			<path class="st6" d="M438.5,212.8c-0.2,0.5-0.8,0.8-1.3,0.6c-0.5-0.2-0.8-0.8-0.6-1.3c0.2-0.5,0.8-0.8,1.3-0.6
				C438.3,211.6,438.6,212.2,438.5,212.8z"/>
		</g>
		<g>
			<path class="st6" d="M449.8,199.3c0,0-15.8,3.1-22.8,4.5c-7.1,1.4-14.6,0.1-14.7,3c-0.1,2.9,0.4,21.4,1.3,24.6
				c0.9,3.1,35.7-1.8,37.8-2.1C453.4,228.8,453.3,204.7,449.8,199.3z"/>
			<path class="st6" d="M419.3,212.4c-0.5,0.5-1.4,0.5-1.9-0.1c-0.5-0.5-0.5-1.4,0.1-1.9c0.5-0.5,1.4-0.5,1.9,0.1
				C419.9,211.1,419.9,211.9,419.3,212.4z"/>
			<path class="st6" d="M423,224.9c-0.6,0.6-1.7,0.6-2.3-0.1c-0.6-0.6-0.6-1.7,0.1-2.3c0.6-0.6,1.7-0.6,2.3,0.1
				S423.6,224.3,423,224.9z"/>
			<path class="st6" d="M429.8,214.3c-0.4,0.4-1.1,0.4-1.4-0.1c-0.4-0.4-0.4-1.1,0.1-1.4c0.4-0.4,1.1-0.4,1.4,0.1
				C430.2,213.2,430.2,213.9,429.8,214.3z"/>
			<path class="st6" d="M439.1,212.8c-0.5,0.5-1.4,0.5-1.9-0.1c-0.5-0.5-0.5-1.4,0.1-1.9c0.5-0.5,1.4-0.5,1.9,0.1
				C439.7,211.4,439.6,212.3,439.1,212.8z"/>
			<path class="st6" d="M445.9,224.3c-0.5,0.5-1.4,0.5-1.9-0.1c-0.5-0.5-0.5-1.4,0.1-1.9c0.5-0.5,1.4-0.5,1.9,0.1
				C446.4,223,446.4,223.8,445.9,224.3z"/>
			<path class="st6" d="M436,225.5c-0.5,0.4-1.2,0.4-1.6-0.1s-0.4-1.2,0.1-1.6c0.5-0.4,1.2-0.4,1.6,0.1
				C436.5,224.3,436.5,225.1,436,225.5z"/>
			<path class="st6" d="M434.2,209c-0.5,0.4-1.2,0.4-1.6-0.1c-0.4-0.5-0.4-1.2,0.1-1.6c0.5-0.4,1.2-0.4,1.6,0.1
				S434.7,208.5,434.2,209z"/>
			<path class="st6" d="M447.2,210c-0.5,0.5-1.4,0.5-1.9-0.1c-0.5-0.5-0.5-1.4,0.1-1.9c0.5-0.5,1.4-0.5,1.9,0.1
				C447.8,208.7,447.8,209.5,447.2,210z"/>
			<path class="st6" d="M427.2,227.8c-0.4,0.4-1.1,0.4-1.4-0.1c-0.4-0.4-0.4-1.1,0.1-1.4c0.4-0.4,1.1-0.4,1.4,0.1
				S427.6,227.4,427.2,227.8z"/>
		</g>
		<g>
			<path class="st6" d="M385.1,227.3l20.3,9.4c4.2-5,6.7-11.5,6.7-18.5c0-16-13-29-29-29s-29,13-29,29s13,29,29,29
				c1.9,0,3.7-0.2,5.5-0.5L385.1,227.3z"/>
			<path class="st6" d="M385.1,225l20.3,9.4c4.2-5,6.7-11.5,6.7-18.5c0-16-13-29-29-29s-29,13-29,29s13,29,29,29
				c1.9,0,3.7-0.2,5.5-0.5L385.1,225z"/>
			<circle class="st6" cx="360" cy="216.6" r="2.4"/>
			<path class="st6" d="M368,225.9c0,0.7-0.6,1.4-1.4,1.4c-0.7,0-1.4-0.6-1.4-1.4s0.6-1.4,1.4-1.4C367.4,224.6,368,225.2,368,225.9z
				"/>
			<circle class="st6" cx="373.6" cy="216.1" r="1.2"/>
			<path class="st6" d="M377.5,202.8c0,0.7-0.6,1.2-1.2,1.2c-0.7,0-1.2-0.6-1.2-1.2c0-0.7,0.6-1.2,1.2-1.2
				C376.9,201.6,377.5,202.1,377.5,202.8z"/>
			<path class="st6" d="M400,219.1c0,0.6-0.5,1.1-1.1,1.1c-0.6,0-1.1-0.5-1.1-1.1s0.5-1.1,1.1-1.1C399.5,218,400,218.5,400,219.1z"
				/>
			<path class="st6" d="M401.6,205.1c0,0.6-0.5,1-1,1c-0.6,0-1-0.5-1-1c0-0.6,0.5-1,1-1C401.1,204.1,401.6,204.5,401.6,205.1z"/>
			<circle class="st6" cx="387.9" cy="209.2" r="1.1"/>
		</g>
		<g>
			<path class="st7" d="M413.5,224.2c0,0-3.6,1.7-4.5,5c-1,3.4,0.9,7.6,3.1,10.3c2.2,2.7,5.1,6.4,7.3,7.2c5.7,2.2,8-6.4,7-10.3
				c-0.4-1.6,2.5-3.3,0.5-8.6C424.7,222.6,416.6,221.4,413.5,224.2z"/>
			<path class="st9" d="M415.4,222.9c0,0-1.1-1.2-2.9-0.7c-1.8,0.5-3.7,1.3-3.7,1.3s1.6,1.2,2.6,1.1
				C412.4,224.4,415.4,222.9,415.4,222.9z"/>
			<path class="st9" d="M415.4,222.9c0,0,0-1.8,0.4-3c0.4-1.2,1.2-2.8,1.2-3.5c0-0.7,1.8-0.3,1.4,1.8
				C417.9,220.2,415.4,222.9,415.4,222.9z"/>
			<g>
				<path class="st9" d="M413.9,234.4c0,0-0.1,0.1-0.1,0.1c-0.2,0.2-0.6,0.2-0.8,0c-0.7-0.8-1.8-2.7-1.9-2.8
					c-0.2-0.3-0.1-0.6,0.2-0.8c0.3-0.2,0.6-0.1,0.8,0.2c0,0,1.1,1.9,1.7,2.6C414,233.9,414,234.2,413.9,234.4z"/>
			</g>
			<g>
				<path class="st9" d="M418.1,232.7c-0.1,0.1-0.2,0.2-0.4,0.2c-0.3,0.1-0.6-0.1-0.7-0.4l-0.8-3.5c-0.1-0.3,0.1-0.6,0.4-0.7
					c0.3-0.1,0.6,0.1,0.7,0.4l0.8,3.5C418.2,232.5,418.2,232.6,418.1,232.7z"/>
			</g>
			<g>
				<path class="st9" d="M421.8,231.4c-0.1,0.2-0.4,0.3-0.6,0.2c-0.3-0.1-0.5-0.4-0.4-0.7l0.9-3.1c0.1-0.3,0.4-0.5,0.7-0.4
					c0.3,0.1,0.5,0.4,0.4,0.7l-0.9,3.1C421.8,231.3,421.8,231.4,421.8,231.4z"/>
			</g>
			<g>
				<path class="st9" d="M416.4,240.1c-0.2,0.3-0.5,0.3-0.8,0.2l-1.8-1.2c-0.3-0.2-0.3-0.5-0.2-0.8c0.2-0.3,0.5-0.3,0.8-0.2l1.8,1.2
					C416.5,239.5,416.6,239.8,416.4,240.1z"/>
			</g>
			<g>
				<path class="st9" d="M418.6,237.8c-0.1,0.1-0.1,0.2-0.2,0.2c-0.3,0.1-0.6,0-0.8-0.3l-0.8-1.7c-0.1-0.3,0-0.6,0.3-0.8
					c0.3-0.1,0.6,0,0.8,0.3l0.8,1.7C418.8,237.5,418.7,237.7,418.6,237.8z"/>
			</g>
			<g>
				<path class="st9" d="M422.3,236.3c-0.1,0.2-0.3,0.3-0.5,0.3c-0.3,0-0.6-0.3-0.5-0.6l0.1-1.5c0-0.3,0.3-0.6,0.6-0.5
					c0.3,0,0.6,0.3,0.5,0.6l-0.1,1.5C422.3,236.2,422.3,236.3,422.3,236.3z"/>
			</g>
			<g>
				<path class="st9" d="M420,243.6c0,0.1-0.1,0.1-0.1,0.1c-0.2,0.2-0.6,0.2-0.8-0.1l-1.2-1.5c-0.2-0.2-0.2-0.6,0.1-0.8
					c0.2-0.2,0.6-0.2,0.8,0.1l1.2,1.5C420.1,243.1,420.2,243.4,420,243.6z"/>
			</g>
			<g>
				<path class="st9" d="M422.6,242.4c-0.1,0.1-0.3,0.3-0.5,0.3c-0.3,0-0.6-0.2-0.6-0.6l-0.1-2.1c0-0.3,0.2-0.6,0.6-0.6
					c0.3,0,0.6,0.2,0.6,0.6l0.1,2.1C422.7,242.1,422.7,242.3,422.6,242.4z"/>
			</g>
			<g>
				<path class="st9" d="M424.5,236.1c-0.1,0.2-0.4,0.3-0.7,0.2c-0.3-0.1-0.4-0.4-0.3-0.7c0.6-1.5,1.2-3.3,1.2-3.6
					c0-0.3,0.3-0.5,0.6-0.5c0.3,0,0.5,0.3,0.5,0.6c-0.1,0.6-1,3.1-1.3,3.9C424.6,236,424.5,236,424.5,236.1z"/>
			</g>
			<g>
				<path class="st9" d="M413.7,229.7c-0.1,0.1-0.2,0.2-0.4,0.2c-0.3,0.1-0.6-0.1-0.7-0.4l-0.5-2.4c-0.1-0.3,0.1-0.6,0.4-0.7
					c0.3-0.1,0.6,0.1,0.7,0.4l0.5,2.4C413.8,229.4,413.8,229.6,413.7,229.7z"/>
			</g>
			<g>
				<path class="st9" d="M420,227.8c-0.1,0.1-0.1,0.2-0.2,0.2c-0.3,0.1-0.6,0-0.8-0.2c-0.5-0.9-1.5-2.9-1.5-2.9l1-0.5
					c0,0,1.1,2,1.5,2.9C420.1,227.4,420.1,227.6,420,227.8z"/>
			</g>
		</g>
		<g>
			<path class="st7" d="M440.3,228.6c0,0-3.4-2.1-6.7-1c-3.4,1-5.9,4.9-7,8.3c-1,3.4-2.6,7.7-2.1,10.1c1.3,6,9.7,3.3,12.4,0.2
				c1.1-1.2,4.1,0.3,7.5-4.3C447.8,237.1,444.5,229.6,440.3,228.6z"/>
			<path class="st9" d="M442.6,229.4c0,0,0.4-1.6-1-2.9c-1.4-1.2-3.1-2.4-3.1-2.4s-0.1,2,0.5,2.7S442.6,229.4,442.6,229.4z"/>
			<path class="st9" d="M442.6,229.4c0,0,1.5-1,2.7-1.4c1.2-0.4,3-0.5,3.6-0.9c0.6-0.4,1.2,1.4-0.7,2.1
				C446.2,230.1,442.6,229.4,442.6,229.4z"/>
			<g>
				<path class="st9" d="M432,234.5c0,0-0.1,0-0.1,0c-0.3-0.1-0.5-0.4-0.4-0.7c0.3-1,1.2-3,1.3-3.1c0.1-0.3,0.5-0.4,0.8-0.3
					c0.3,0.1,0.4,0.5,0.3,0.8c0,0-1,1.9-1.2,2.9C432.5,234.3,432.3,234.5,432,234.5z"/>
			</g>
			<g>
				<path class="st9" d="M435.7,237.1c-0.1,0-0.3-0.1-0.4-0.2c-0.2-0.2-0.2-0.6,0-0.8l2.5-2.6c0.2-0.2,0.6-0.2,0.8,0
					c0.2,0.2,0.2,0.6,0,0.8l-2.5,2.6C436,237,435.9,237.1,435.7,237.1z"/>
			</g>
			<g>
				<path class="st9" d="M438.8,239.4c-0.2,0-0.5-0.2-0.5-0.4c-0.1-0.3,0.1-0.6,0.4-0.7l3.1-1c0.3-0.1,0.6,0.1,0.7,0.4
					c0.1,0.3-0.1,0.6-0.4,0.7l-3.1,1C439,239.4,438.9,239.4,438.8,239.4z"/>
			</g>
			<g>
				<path class="st9" d="M428.7,239.7c-0.3,0-0.6-0.3-0.6-0.6V237c0-0.3,0.3-0.6,0.6-0.6s0.6,0.3,0.6,0.6v2.1
					C429.3,239.4,429,239.7,428.7,239.7z"/>
			</g>
			<g>
				<path class="st9" d="M431.8,240.3c-0.1,0-0.2,0-0.3-0.1c-0.3-0.2-0.4-0.5-0.2-0.8l1-1.6c0.2-0.3,0.5-0.4,0.8-0.2
					c0.3,0.2,0.4,0.5,0.2,0.8l-1,1.6C432.2,240.2,432,240.3,431.8,240.3z"/>
			</g>
			<g>
				<path class="st9" d="M435,242.5c-0.2,0-0.4-0.1-0.5-0.3c-0.2-0.3,0-0.6,0.2-0.8l1.4-0.7c0.3-0.2,0.6,0,0.8,0.2
					c0.2,0.3,0,0.6-0.2,0.8l-1.4,0.7C435.2,242.5,435.1,242.5,435,242.5z"/>
			</g>
			<g>
				<path class="st9" d="M427.7,244.6c-0.1,0-0.1,0-0.2,0c-0.3-0.1-0.5-0.4-0.4-0.7l0.6-1.9c0.1-0.3,0.4-0.5,0.7-0.4
					c0.3,0.1,0.5,0.4,0.4,0.7l-0.6,1.9C428.2,244.5,427.9,244.6,427.7,244.6z"/>
			</g>
			<g>
				<path class="st9" d="M430.2,246.1c-0.2,0-0.4-0.1-0.5-0.2c-0.2-0.3-0.1-0.6,0.1-0.8l1.7-1.2c0.3-0.2,0.6-0.1,0.8,0.1
					c0.2,0.3,0.1,0.6-0.1,0.8l-1.7,1.2C430.4,246.1,430.3,246.1,430.2,246.1z"/>
			</g>
			<g>
				<path class="st9" d="M436.5,244.3c-0.3,0-0.5-0.2-0.6-0.5c-0.1-0.3,0.1-0.6,0.4-0.7c1.6-0.4,3.4-0.8,3.7-0.9
					c0.3-0.1,0.6,0,0.8,0.3c0.1,0.3,0,0.6-0.3,0.8c-0.5,0.3-3.2,0.9-4,1C436.6,244.3,436.5,244.3,436.5,244.3z"/>
			</g>
			<g>
				<path class="st9" d="M435.9,231.7c-0.1,0-0.3-0.1-0.4-0.2c-0.2-0.2-0.2-0.6,0-0.8l1.7-1.7c0.2-0.2,0.6-0.2,0.8,0
					c0.2,0.2,0.2,0.6,0,0.8l-1.7,1.7C436.2,231.7,436,231.7,435.9,231.7z"/>
			</g>
			<g>
				<path class="st9" d="M441,236c-0.1,0-0.2,0-0.3-0.1c-0.3-0.2-0.4-0.5-0.2-0.8c0.5-0.9,1.6-2.8,1.6-2.8l1,0.6c0,0-1.1,2-1.6,2.9
					C441.3,235.9,441.2,236,441,236z"/>
			</g>
		</g>
		<g>
			<path class="st7" d="M414.3,250.2c0,0,1.5-3.6,0-6.8c-1.5-3.2-5.8-5.1-9.2-5.6c-3.5-0.5-8-1.4-10.3-0.5
				c-5.7,2.2-1.7,10.1,1.7,12.3c1.4,0.9,0.3,4.1,5.4,6.7C407,258.9,413.9,254.5,414.3,250.2z"/>
			<path class="st9" d="M413.8,252.6c0,0,1.6,0.1,2.7-1.4c1-1.5,1.9-3.4,1.9-3.4s-2,0.2-2.6,0.9C415,249.4,413.8,252.6,413.8,252.6z
				"/>
			<path class="st9" d="M413.8,252.6c0,0,1.2,1.3,1.8,2.5c0.6,1.2,0.9,2.9,1.4,3.4c0.5,0.6-1.2,1.4-2.2-0.4
				C413.7,256.2,413.8,252.6,413.8,252.6z"/>
			<g>
				<path class="st9" d="M407.2,242.9c0,0,0-0.1,0-0.1c0-0.3,0.3-0.5,0.6-0.5c1.1,0.1,3.2,0.8,3.3,0.8c0.3,0.1,0.5,0.4,0.4,0.7
					c-0.1,0.3-0.4,0.5-0.7,0.4c0,0-2.1-0.7-3-0.7C407.4,243.4,407.2,243.2,407.2,242.9z"/>
			</g>
			<g>
				<path class="st9" d="M405.2,247c0-0.1,0-0.3,0.1-0.4c0.2-0.3,0.5-0.3,0.8-0.1l3,2c0.3,0.2,0.3,0.5,0.1,0.8
					c-0.2,0.3-0.5,0.3-0.8,0.1l-3-2C405.3,247.3,405.2,247.2,405.2,247z"/>
			</g>
			<g>
				<path class="st9" d="M403.3,250.4c0-0.2,0.1-0.5,0.3-0.6c0.3-0.1,0.6,0,0.8,0.3l1.5,2.9c0.1,0.3,0,0.6-0.3,0.8
					c-0.3,0.1-0.6,0-0.8-0.3l-1.5-2.9C403.3,250.6,403.3,250.5,403.3,250.4z"/>
			</g>
			<g>
				<path class="st9" d="M401.5,240.4c0-0.3,0.2-0.6,0.5-0.7l2.1-0.3c0.3,0,0.6,0.2,0.7,0.5c0,0.3-0.2,0.6-0.5,0.7l-2.1,0.3
					C401.8,241,401.6,240.8,401.5,240.4z"/>
			</g>
			<g>
				<path class="st9" d="M401.4,243.6c0-0.1,0-0.2,0-0.3c0.1-0.3,0.5-0.4,0.8-0.3l1.7,0.7c0.3,0.1,0.4,0.5,0.3,0.8
					c-0.1,0.3-0.5,0.4-0.8,0.3l-1.7-0.7C401.5,244,401.4,243.8,401.4,243.6z"/>
			</g>
			<g>
				<path class="st9" d="M399.7,247.1c0-0.2,0-0.4,0.2-0.5c0.3-0.2,0.6-0.1,0.8,0.1l0.9,1.2c0.2,0.3,0.1,0.6-0.1,0.8
					c-0.3,0.2-0.6,0.1-0.8-0.1l-0.9-1.2C399.7,247.3,399.7,247.2,399.7,247.1z"/>
			</g>
			<g>
				<path class="st9" d="M396.5,240.2c0-0.1,0-0.1,0-0.2c0.1-0.3,0.3-0.5,0.7-0.5l1.9,0.3c0.3,0.1,0.5,0.4,0.5,0.7
					c-0.1,0.3-0.3,0.5-0.7,0.5l-1.9-0.3C396.7,240.7,396.5,240.5,396.5,240.2z"/>
			</g>
			<g>
				<path class="st9" d="M395.4,242.9c0-0.2,0-0.4,0.2-0.5c0.2-0.2,0.6-0.2,0.8,0l1.5,1.5c0.2,0.2,0.2,0.6,0,0.8
					c-0.2,0.2-0.6,0.2-0.8,0l-1.5-1.5C395.4,243.1,395.4,243,395.4,242.9z"/>
			</g>
			<g>
				<path class="st9" d="M398.2,248.9c0-0.3,0.1-0.5,0.4-0.6c0.3-0.1,0.6,0,0.7,0.3c0.6,1.5,1.3,3.3,1.5,3.5
					c0.2,0.3,0.1,0.6-0.1,0.8c-0.3,0.2-0.6,0.1-0.8-0.1c-0.3-0.5-1.3-3-1.6-3.8C398.2,248.9,398.2,248.9,398.2,248.9z"/>
			</g>
			<g>
				<path class="st9" d="M410.4,246.3c0-0.1,0-0.3,0.1-0.4c0.2-0.3,0.5-0.3,0.8-0.1l2,1.4c0.3,0.2,0.3,0.5,0.1,0.8
					c-0.2,0.3-0.5,0.3-0.8,0.1l-2-1.4C410.5,246.6,410.5,246.5,410.4,246.3z"/>
			</g>
			<g>
				<path class="st9" d="M407.1,252c0-0.1,0-0.2,0-0.3c0.1-0.3,0.4-0.4,0.7-0.3c0.9,0.4,3.1,1.2,3.1,1.2l-0.4,1.1
					c0,0-2.1-0.8-3.1-1.2C407.2,252.4,407.1,252.2,407.1,252z"/>
			</g>
		</g>
	</g>
</g>
<g id="Dish_3">
	<g>
		<circle class="st6" cx="316.6" cy="81.4" r="59.9"/>
		<g>
			<path class="st7" d="M293.2,63.3c0,0-2.8-0.8-8.3-4.1c-5.5-3.2-13.8-3.1-14.9-0.3c-1.1,2.8,0.6,5.2-0.6,6.6
				c-1.1,1.4-3.7,1.7-3.4,3.1c0.3,1.4,3,2.1,2.5,3c-0.4,0.8-2.1,2.5-1.5,3.2c0.6,0.7,2.4,2,2.4,2s1.8-1.3-1.5,2
				c-3.4,3.2-2.4,5.1-2.4,5.1s1.1,1.5,0.7,2.8c-0.4,1.3,1.3,2.1,1.3,2.1s1.7,1.5,1.5,3.4c-0.1,1.8,1.4,4.2,1.4,4.2s6.3,2,6.2,3
				c-0.1,1-1.4,2.8-1.1,3.8c0.3,1,3.1,0.7,3.9,0.7c0.8,0,1.7,0.8,1.5,3.5c-0.1,2.7,1.7,3.2,1.7,3.2s5.2,1.8,5.3,2.4
				c0.1,0.6-2.5,1.7,1.7,1.5c4.2-0.1,6.3,0.4,4.5-1.1c-1.8-1.5-3.8-4.2-5.6-4.5c-1.8-0.3-4.9-2.8-2.5-3.2c2.4-0.4,4.8,0.7,4.8,0.7
				l1.3,1.7l3.9,1c0,0-3.7,2.1-0.6,3.1c3.1,1,3.9-0.3,4.1,0.8c0.1,1.1,0.7,3.5,0.7,3.5s-0.6-0.7,1.5,0c2.1,0.7,1.7-15.1,0.4-16.6
				c-1.3-1.5-4.6-3.7-4.6-3.7l1.4-4.5l-0.8-3.2C298.1,88.5,284.9,84.5,293.2,63.3z"/>
			<path class="st5" d="M270.9,76.9c0,0,3.8-0.7,8-1.3c4.2-0.6,2.7-1.4,4.6-2.1c2-0.7,2.8,0,2.8,0"/>
			<path class="st5" d="M269.7,70.3c0.4,0,6.2,0.4,10.1,0.8c3.9,0.4,5.9-1.3,5.9-1.3h1.8"/>
			<path class="st5" d="M271.5,92.4c0,0,7.6-3.4,9-3.4s2.4,1.3,3.4-0.6c1-1.8,0.3-3,1.1-3.7c0.8-0.7,0-0.6,0.8-0.7"/>
			<path class="st5" d="M281.1,102.1c2.7-0.7,1-4.6,3.9-4.9s4.5-0.1,7.2-1c2.7-0.8,3.8-1.5,3.9-2"/>
		</g>
		<g>
			<path class="st7" d="M308.6,51.7c0,0-0.8-3.7,0.4-5.6c1.3-2,6.3-1.3,8-0.8c1.7,0.4,3.8,1.8,3.8-1.1s-0.7-4.4-1.8-5.1
				c-1.1-0.7,0.4-2.3-1.3-3c-1.7-0.7-1.3-0.3-2.4-0.7c-1.1-0.4-1.7-2.7-3.4-2.7c-1.7,0-1.7,1.1-2.7,0.6c-1-0.6-2-2-3.1-1.7
				c-1.1,0.3-2.7,1.8-2.7,1.8s-1-0.7-2.1-0.4c-1.1,0.3-1.3,1.3-2.7,1.3c-1.4,0-3.4-2-4.2-1.4s-2.1,1.7-2.3,2.3
				c-0.1,0.6-2.1-0.3-3,0.8c-0.8,1.1-1.3,2.4-1.8,2.7c-0.6,0.3-2,0.6-2,1s0.3,1.7,0,2.1s-1.1,1-1.1,1s0.4,1.8-0.1,2.4
				c-0.6,0.6-3.1,1.8-3.1,1.8s1.4,1.4,0.7,2c-0.7,0.6-1.7,0.4-2,1c-0.3,0.6,0.4,2.3,0.4,2.3s2.7,1.4,4.1,2.3
				c1.4,0.8,2.5,1.8,6.8-0.7c4.2-2.5,8.4-2.7,10-1.8c1.5,0.8,3.8,4.1,3.8,4.1S307.4,56.9,308.6,51.7z"/>
			<path class="st5" d="M311,34.4c0,0-1.7,0.6-1.7,2.7c0,2.1-1.3,6-1.3,6l-1.4,2.4"/>
			<path class="st5" d="M316.9,38.2c0,0-2,1.1-3.4,2.7c-1.4,1.5-3.4,3.1-3.4,3.1"/>
			<path class="st5" d="M295.3,35.4c0,0,3.5,3.7,3.8,5.9"/>
			<path class="st5" d="M287.1,42.3c0,0,2.1,2,3.5,2.4c1.4,0.4,3.1,1,3.1,1s3.4,1.4,4.8,2"/>
		</g>
		<g>
			<path class="st7" d="M347.1,89.9c0,0,3.6,1.1,4.7,3.2c1.1,2.1-2.1,6.1-3.3,7.4c-1.2,1.3-3.5,2.4-0.9,3.9c2.6,1.5,4.1,1.6,5.3,1
				s1.7,1.5,3.2,0.4c1.5-1.1,0.9-1,1.8-1.7s3.2-0.1,4-1.6s-0.1-2,0.9-2.6c1-0.6,2.7-0.7,3-1.8c0.3-1.1-0.2-3.2-0.2-3.2
				s1.1-0.5,1.4-1.6c0.3-1.1-0.5-1.7,0.2-2.9c0.7-1.2,3.4-1.9,3.3-2.9c-0.1-1-0.4-2.7-0.8-3.1c-0.4-0.4,1.3-1.7,0.7-3
				c-0.6-1.3-1.4-2.3-1.4-2.9c0-0.6,0.5-2,0.1-2.2c-0.4-0.2-1.6-0.6-1.8-1.1c-0.2-0.5-0.3-1.5-0.3-1.5s-1.8-0.6-2-1.3
				c-0.2-0.8,0-3.6,0-3.6s-1.9,0.5-2.1-0.4c-0.1-0.9,0.5-1.7,0.1-2.2c-0.3-0.5-2.2-0.8-2.2-0.8s-2.6,1.6-4,2.4
				c-1.4,0.8-2.9,1.3-2.8,6.2c0.1,4.9-1.9,8.6-3.4,9.6c-1.5,0.9-5.4,1.2-5.4,1.2S343.2,86.2,347.1,89.9z"/>
			<path class="st5" d="M360.9,100.6c0,0,0.4-1.7-1.5-2.8c-1.8-1.1-4.6-4.1-4.6-4.1l-1.4-2.4"/>
			<path class="st5" d="M354.7,103.8c0,0,0-2.3-0.6-4.3c-0.6-2-1-4.5-1-4.5"/>
			<path class="st5" d="M367.9,86.5c0,0-4.9,1.2-7,0.3"/>
			<path class="st5" d="M366.1,75.9c0,0-2.8,0.8-3.8,1.8c-1.1,1-2.4,2.2-2.4,2.2s-2.9,2.2-4.1,3.2"/>
		</g>
		<g>
			<circle class="st6" cx="284.2" cy="61.7" r="12.4"/>
			<circle class="st6" cx="284.2" cy="60.4" r="12.4"/>
			
				<ellipse transform="matrix(0.9228 -0.3853 0.3853 0.9228 -1.3239 114.1762)" class="st10" cx="284.2" cy="60.4" rx="11.1" ry="11.1"/>
			<path class="st11" d="M285.4,59.3c0,0,1.4,0,1.4-1.6c0-1.6-2.2-2.8-4.7-1.6c-2.5,1.2-4.2,3.5-3.6,3.7c0.6,0.3,3.2-0.1,3,0.5
				c-0.2,0.7-3.1,0.5-3.8,0.5c-0.7,0-1.8,0.7-1.2,2.1c0.6,1.5,0.4-0.4,2.4-0.4c2,0,3.6,0.1,3.1,0.5c-0.5,0.4-2.9,1.2-1.2,1.5
				s7.4,0.1,6.9-0.9c-0.5-1.1-3-1.5-1.8-1.9c1.2-0.4,2.4-1.1,3.2-0.9c0.8,0.1,2-1.3,1-1.7C289.2,58.7,287.2,59.7,285.4,59.3z"/>
			<path class="st11" d="M285,53.4c0,0-1.9-4-1.6-1.7C283.7,53.9,284.6,55.5,285,53.4z"/>
			<path class="st11" d="M280.4,55.1c0,0-3.1-3.2-2.1-1.1C279.3,56,280.7,57.2,280.4,55.1z"/>
			<path class="st11" d="M289.6,55.1c0,0,3.1-3.2,2.1-1.1C290.7,56,289.3,57.2,289.6,55.1z"/>
			<path class="st11" d="M291.1,61.8c0,0,4.4-0.3,2.3,0.5C291.3,63.2,289.4,63.2,291.1,61.8z"/>
			<path class="st11" d="M289.3,65c0,0,4,1.9,1.7,1.6S287.2,65.4,289.3,65z"/>
			<path class="st11" d="M286.4,68.8c0,0-1.3-4.2-1.3-2C285,69.1,285.7,70.8,286.4,68.8z"/>
			<path class="st11" d="M280.5,66.8c0,0-2.3,3.8-0.6,2.3C281.7,67.6,282.5,65.9,280.5,66.8z"/>
		</g>
		<g>
			<circle class="st6" cx="303.1" cy="50.6" r="11.2"/>
			<circle class="st6" cx="303.1" cy="49.4" r="11.2"/>
			
				<ellipse transform="matrix(0.2366 -0.9716 0.9716 0.2366 183.3948 332.1626)" class="st10" cx="303.1" cy="49.4" rx="10" ry="10"/>
			<path class="st11" d="M304.2,48.3c0,0,1.3,0,1.3-1.4c0-1.4-1.9-2.5-4.2-1.4c-2.3,1.1-3.8,3.1-3.2,3.4c0.5,0.2,2.9-0.1,2.7,0.5
				c-0.2,0.6-2.8,0.5-3.5,0.5c-0.6,0-1.6,0.6-1.1,1.9s0.3-0.4,2.2-0.4s3.2,0.1,2.8,0.5c-0.4,0.4-2.6,1.1-1.1,1.3
				c1.5,0.2,6.7,0.1,6.3-0.8c-0.4-1-2.7-1.3-1.6-1.7c1.1-0.4,2.2-1,2.9-0.8c0.8,0.1,1.8-1.2,0.9-1.6
				C307.5,47.9,305.8,48.7,304.2,48.3z"/>
			<path class="st11" d="M303.8,43c0,0-1.7-3.6-1.4-1.6C302.6,43.5,303.4,45,303.8,43z"/>
			<path class="st11" d="M299.6,44.6c0,0-2.8-2.9-1.9-1C298.6,45.4,299.9,46.5,299.6,44.6z"/>
			<path class="st11" d="M307.9,44.6c0,0,2.8-2.9,1.9-1C308.9,45.4,307.6,46.5,307.9,44.6z"/>
			<path class="st11" d="M309.2,50.6c0,0,4-0.3,2.1,0.5C309.4,51.9,307.7,51.9,309.2,50.6z"/>
			<path class="st11" d="M307.7,53.5c0,0,3.6,1.7,1.6,1.4C307.2,54.7,305.7,53.9,307.7,53.5z"/>
			<path class="st11" d="M305,56.9c0,0-1.2-3.8-1.2-1.8C303.8,57.2,304.4,58.8,305,56.9z"/>
			<path class="st11" d="M299.7,55.1c0,0-2.1,3.4-0.5,2.1C300.8,55.8,301.5,54.3,299.7,55.1z"/>
		</g>
		<g>
			<path class="st6" d="M357.1,90c5.8,2.1,8.9,8.5,6.8,14.3c-2.1,5.8-8.5,8.9-14.3,6.8c-5.8-2.1-8.9-8.5-6.8-14.3
				C344.9,91,351.3,87.9,357.1,90z"/>
			<path class="st6" d="M356,89.6c5.8,2.1,8.9,8.5,6.8,14.3c-2.1,5.8-8.5,8.9-14.3,6.8c-5.8-2.1-8.9-8.5-6.8-14.3
				C343.7,90.6,350.1,87.5,356,89.6z"/>
			<path class="st10" d="M355.6,90.7c5.2,1.9,7.9,7.6,6.1,12.8c-1.9,5.2-7.6,7.9-12.8,6.1c-5.2-1.9-7.9-7.6-6.1-12.8
				C344.6,91.6,350.4,88.9,355.6,90.7z"/>
			<path class="st11" d="M351.6,98.8c0,0,0.4-1.2-0.9-1.7c-1.4-0.5-3,1-2.8,3.5c0.3,2.5,1.7,4.6,2.1,4.2c0.4-0.4,0.9-2.8,1.4-2.4
				c0.5,0.4-0.5,2.8-0.7,3.4c-0.2,0.6,0,1.7,1.5,1.7c1.4-0.1-0.2-0.4,0.4-2.2c0.6-1.7,1.2-3,1.4-2.5c0.2,0.5,0.2,2.8,0.9,1.5
				c0.7-1.3,2.4-6.3,1.3-6.2c-1.1,0.1-2.2,2.1-2.1,1c0-1.1-0.2-2.4,0.2-3c0.4-0.7-0.5-2.1-1.2-1.3C352.3,95.5,352.5,97.4,351.6,98.8
				z"/>
			<path class="st11" d="M346.5,97.4c0,0-4,0.4-2,0.8C346.5,98.7,348.2,98.4,346.5,97.4z"/>
			<path class="st11" d="M346.5,101.8c0,0-3.6,1.6-1.6,1.4C347,103,348.5,102.2,346.5,101.8z"/>
			<path class="st11" d="M349.3,94c0,0-1.8-3.6-0.3-2.1C350.4,93.4,351.1,94.9,349.3,94z"/>
			<path class="st11" d="M355.5,94.8c0,0,1-3.9,1.2-1.8S356.2,96.7,355.5,94.8z"/>
			<path class="st11" d="M357.7,97.3c0,0,2.8-2.9,1.9-1C358.7,98.1,357.4,99.2,357.7,97.3z"/>
			<path class="st11" d="M360,100.9c0,0-4-0.2-2.1,0.5C359.8,102.2,361.5,102.1,360,100.9z"/>
			<path class="st11" d="M356.5,105.3c0,0,2.5,3.1,1.8,1.2C357.5,104.5,356.4,103.3,356.5,105.3z"/>
		</g>
		<g>
			<path class="st6" d="M311.2,59.4c0,0-5.5-2.6-8.6-2.6s-7.3,1.8-10.2,8.4c-2.9,6.6-4.6,12.9-1.6,18.6c2.9,5.7,8.4,8.2,11.9,7.5
				c3.5-0.7,6.9-6.6,9.8-16.6C315.4,64.7,313.7,60.8,311.2,59.4z"/>
			<path class="st6" d="M292.4,65.2c-2.9,6.6-4.6,12.9-1.6,18.6c2.2,4.3,5.9,6.8,9.1,7.4c-0.3-0.2-0.8-0.5-1.3-0.7
				c-1.8-0.7-4.6-3.5-5.5-10.6c-0.9-7.1,2.9-13.5,7.1-18.4c4.2-4.9,10.9-2.2,10.9-2.2s-5.5-2.6-8.6-2.6S295.3,58.6,292.4,65.2z"/>
			<path class="st0" d="M303.9,73.6c0,0-1.8-12-1.1-12.4c0.6-0.4,3.4-2.5,3.6-0.5C306.7,62.7,303.9,73.6,303.9,73.6z"/>
			<path class="st0" d="M302.9,74.2c0,0-0.3-12.5-1.9-11.1c-1.6,1.4-4.3,3.9-3.4,4.3C298.5,67.7,302.9,74.2,302.9,74.2z"/>
			<path class="st0" d="M302.9,74.2c0,0-5.4-5.8-6.1-5.5c-0.8,0.3-1.4,3.1-1.4,4.5S302.9,74.2,302.9,74.2z"/>
			<path class="st0" d="M302.9,74.2c0,0-7.1,0.8-7.9,1.9c-0.8,1.1-1,5.1-0.4,5.6C295.3,82.2,302.9,74.2,302.9,74.2z"/>
			<path class="st0" d="M302.9,74.2c0,0-7.4,7.9-7.3,9c0.1,1.1,1.9,5,3.8,4C301.3,86.2,302.9,74.2,302.9,74.2z"/>
			<path class="st0" d="M307.9,60l-4,13.6c0,0,6.1-6.5,7.1-9.9C312,60.3,307.9,60,307.9,60z"/>
			<path class="st0" d="M303.4,75.1c0,0-3.6,12.4-2.5,13.3s3,0.9,4.4-1C306.7,85.5,303.4,75.1,303.4,75.1z"/>
			<path class="st0" d="M303.9,73.6c0,0,2.6,11.3,3.1,11.9c0.5,0.6,2.6-3.5,2.3-5.8C308.9,77.5,303.9,73.6,303.9,73.6z"/>
			<path class="st0" d="M310,78c0,0,2.1-4.8,2.3-6.8c0.1-2-8.4,2.4-8.4,2.4S307.8,75,310,78z"/>
			<path class="st0" d="M306,72c0,0,6-8.5,6.3-7.1c0.3,1.4,0.8,3.6,0.4,4.3C312.3,69.7,306,72,306,72z"/>
		</g>
		<g>
			<path class="st6" d="M321.6,50.4c0,0-5.5-2.6-8.6-2.6s-7.3,1.8-10.2,8.4c-2.9,6.6-4.6,12.9-1.6,18.6c2.9,5.7,8.4,8.2,11.9,7.5
				s6.9-6.6,9.8-16.6C325.8,55.6,324.1,51.8,321.6,50.4z"/>
			<path class="st6" d="M302.8,56.2c-2.9,6.6-4.6,12.9-1.6,18.6c2.2,4.3,5.9,6.8,9.1,7.4c-0.3-0.2-0.8-0.5-1.3-0.7
				c-1.8-0.7-4.6-3.5-5.5-10.6c-0.9-7.1,2.9-13.5,7.1-18.4c4.2-4.9,10.9-2.2,10.9-2.2s-5.5-2.6-8.6-2.6S305.7,49.6,302.8,56.2z"/>
			<path class="st0" d="M314.3,64.6c0,0-1.8-12-1.1-12.4c0.6-0.4,3.4-2.5,3.6-0.5C317,53.7,314.3,64.6,314.3,64.6z"/>
			<path class="st0" d="M313.3,65.2c0,0-0.3-12.5-1.9-11.1c-1.6,1.4-4.3,3.9-3.4,4.3C308.9,58.7,313.3,65.2,313.3,65.2z"/>
			<path class="st0" d="M313.3,65.2c0,0-5.4-5.8-6.1-5.5c-0.8,0.3-1.4,3.1-1.4,4.5C305.8,65.6,313.3,65.2,313.3,65.2z"/>
			<path class="st0" d="M313.3,65.2c0,0-7.1,0.8-7.9,1.9c-0.8,1.1-1,5.1-0.4,5.6C305.7,73.2,313.3,65.2,313.3,65.2z"/>
			<path class="st0" d="M313.3,65.2c0,0-7.4,7.9-7.3,9s1.9,5,3.8,4C311.7,77.2,313.3,65.2,313.3,65.2z"/>
			<path class="st0" d="M318.3,51l-4,13.6c0,0,6.1-6.5,7.1-9.9C322.4,51.3,318.3,51,318.3,51z"/>
		</g>
		<g>
			<path class="st8" d="M342,48.9c0,0-1.3,3.1-0.5,6.2c0.7,3.1,1.1,3.6,1.1,6.6c0,2.9-0.5,4.7-1.5,6.4c-0.9,1.6-1.3,2.9-3.1,5.3
				c-1.8,2.4,1.3,1.3-3.1,4c-4.4,2.7-5.7,4.4-5.7,5.1s-2.6,3.5,3.3,3.3c5.8-0.2,13.3-9.8,14.6-14.6c1.3-4.7,2.6-15,0.7-18.4
				C346,49.3,344,47.6,342,48.9z"/>
			<path class="st12" d="M343.4,41.4c0,0,1.1-3.6-2-5.8c-3.1-2.2-9.1,0.2-12.9,5.3c-3.8,5.1-3.5,7.3-4.4,9.1
				c-0.9,1.8-15.1,24.3-19,33.4c-3.8,9.1-7.5,14.6-6.4,23c1.1,8.4,1.8,15.9,8.6,20.4c6.7,4.6,6,3.6,6.7,4.6s1.5,0.7,5.3-0.9
				s8.6-0.7,12.8-3.5c4.2-2.7,8.8-6,10.8-9.8c2-3.8,6.6-11.7,9.7-23c3.1-11.3,4.7-21.9,4.9-25.4c0.2-3.5,2.9-11.9,3.1-15.7
				c0.2-3.8,0.7-4.6-3.3-8.9c-4-4.4-7.7-2.7-9.3-1.1c-1.6,1.6-6,2.9-6,5.8s3.3,5.7,3.8,10.9c0.5,5.3-0.4,9.7-1.5,12
				c-1.1,2.4-4,6.6-6,8.6c-2,2-6.7,3.6-7.3,2c-0.5-1.6-2-8.6-2-11.3c0-2.7,0.4-6.2,2.9-10.9c2.6-4.7,4.9-7.8,6.7-10.9
				C340.5,46.2,341.8,46.5,343.4,41.4z"/>
			<path class="st13" d="M321.6,127.1c-4.6,0-7.3,1.3-7.3,1.3s-3.6-2-5.7-3.8c-2-1.8-7.8-9.5-7.3-20.6c0.5-11.1,8.8-27.5,10.8-31
				c2-3.5,10.2-15.5,12.4-19c2.2-3.5,2.4-4.9,3.1-8.9c0.5-2.6,3.6-6.3,5.7-8.6c-1.7,1-3.4,2.5-4.8,4.4c-3.8,5.1-3.5,7.3-4.4,9.1
				c-0.9,1.8-15.1,24.3-19,33.4c-3.8,9.1-7.5,14.6-6.4,23c1.1,8.4,1.8,15.9,8.6,20.4c6.7,4.6,6,3.6,6.7,4.6c0.7,0.9,1.5,0.7,5.3-0.9
				s8.6-0.7,12.8-3.5c4.2-2.7,8.8-6,10.8-9.8c-1.5,0.9-8,4.9-11.3,7.1C328.3,126.4,326.1,127.1,321.6,127.1z"/>
			<path class="st5" d="M317.1,102.7c2.2,0.5,3.8,0.4,3.8,0.4"/>
			<path class="st5" d="M306.8,89.9c0,0-0.2,6.2,4.4,9.8c1.2,1,2.5,1.7,3.7,2.2"/>
			<path class="st5" d="M305.1,103.1c0,0,4.7,1.6,8.4,2.7c3.6,1.1,5.5,0.5,5.5,0.5"/>
			<path class="st5" d="M312.8,111.6c1.7,0.1,3.4,0,4.9-0.5"/>
			<path class="st5" d="M304.4,110c0,0,3,1,6.4,1.4"/>
			<path class="st5" d="M322.8,113.5c0,0,8.6,5.3,13.9,4.6"/>
			<path class="st5" d="M325.8,108.5c0,0,7.1,3.6,14.2,1.1c7.1-2.6,8.6-7.5,8.6-7.5"/>
			<path class="st5" d="M345.8,98.7c1.1-1.4,1.5-2.4,1.5-2.4"/>
			<path class="st5" d="M326.3,104c0,0,6.6,2.6,13.1-0.5c1.6-0.8,2.9-1.6,4-2.4"/>
			<path class="st5" d="M326.3,73.3c0,0-8.9,0.5-14,6.9"/>
			<path class="st5" d="M321.3,69.9c1.8-0.7,3.9-1.3,5.9-1.5"/>
			<path class="st5" d="M315.2,72.8c0,0,1.5-0.9,3.8-1.9"/>
			<path class="st5" d="M322.1,62.2c0,0,5.8-1.6,7.8-1.8"/>
			<path class="st5" d="M334.1,50.8c0.6-0.1,1.2-0.1,1.7-0.1"/>
			<path class="st5" d="M325.9,53.1c0,0,2.2-0.9,4.7-1.6"/>
			<path class="st5" d="M350,54.4c0,0,5.5,2.7,6.7,6.6"/>
			<path class="st5" d="M349.8,62.9c0,0,6.4,3.6,6.7,8.9"/>
			<path class="st5" d="M347.1,77.4c0,0,5.1,4,4,12.6"/>
			<path class="st5" d="M328.1,85.6c0,0-2.2,1.1-1.8,4c0.4,2.9,0.9,3.1,0.4,4c-0.5,0.9-4.4,11.7-5.1,15c-0.7,3.3-1.6,6-2.7,8.2
				c-1.1,2.2-1.8,5.3-1.8,6.2"/>
			<path class="st5" d="M333.2,88.7c0,0-0.2,3.8-1.6,4.2c-1.5,0.4-3.1,1.3-3.1,1.3l-1.3,4.9"/>
			<path class="st5" d="M324.7,82.1c0,0-6.2-0.4-10.4,6.6"/>
		</g>
	</g>
</g>
<g id="Dish_2">
	<g>
		<circle class="st6" cx="170.6" cy="81.4" r="59.9"/>
		<g>
			<path class="st7" d="M189.3,27.2c0,0-1.7-3.9-6.3-1.7c-4.6,2.2-4.3,5.6-4.3,5.6s-6.5,4.3-6,7.2c0.5,2.9,3.4,8,3.4,8
				s-3.4,5.6-2.9,8.2c0.5,2.7,1.9,9.2,2.2,9.9c0.2,0.7-5.8,3.1-4.8,6.3c1,3.1,3.4,7,4.3,7.2s3.4,1.2,3.4,1.2s1.4,7.5,3.1,9.9
				c1.7,2.4,3.6,3.4,3.6,3.4s3.9,7.2,15.2,9.4c11.4,2.2,16.9-12.3,16.9-12.3s3.4-4.3,3.9-6.5s-0.5-10.1-0.2-10.9
				c0.2-0.7,2.4-4.3,1.9-9.4c-0.5-5.1-3.4-13-5.8-15c-2.4-1.9-4.8-2.2-4.8-2.2s-6.5-9.2-9.4-10.6c-2.9-1.4-5.1-1.4-5.1-1.4
				L189.3,27.2z"/>
			<path class="st5" d="M192.5,35.6c0.8-0.8,1.5-1.7,2.1-2.5"/>
			<path class="st5" d="M177.7,45.4c0,0,7-3.1,12.4-7.6"/>
			<path class="st5" d="M178.1,62.7c0,0,25.6-10.6,31.2-15.5"/>
			<path class="st5" d="M206.2,71.8c4.2-0.6,8.4-0.9,11.8-0.6"/>
			<path class="st5" d="M181.5,77.7c0,0,10.8-3.6,21.8-5.5"/>
			<path class="st5" d="M203.6,90.4c4.8-0.3,9.8-0.6,13.4-0.8"/>
			<path class="st5" d="M187.6,91.3c0,0,5.6-0.3,12.3-0.6"/>
		</g>
		<g>
			<circle class="st6" cx="146.1" cy="50.6" r="21.1"/>
			
				<ellipse transform="matrix(0.2319 -0.9727 0.9727 0.2319 66.4326 178.189)" class="st6" cx="146.1" cy="47" rx="22.1" ry="22.1"/>
			<circle class="st12" cx="146.1" cy="47" r="19.3"/>
			<g>
				<path class="st6" d="M159.2,66.3l-3,2.5c0,0,8.1,7.1,10.3,7.1s4.3-2.2,4.2-3.6c-0.2-1.4-7.6-9.2-7.6-9.2L159.2,66.3z"/>
				<line class="st5" x1="159.2" y1="66.3" x2="165.9" y2="73.1"/>
			</g>
			<circle class="st9" cx="138.6" cy="37.2" r="1.4"/>
			<circle class="st9" cx="145.4" cy="35.5" r="0.7"/>
			<circle class="st9" cx="144.4" cy="44.6" r="0.8"/>
			<path class="st9" d="M152.5,43.7c0,0.6-0.4,1-1,1s-1-0.4-1-1s0.4-1,1-1S152.5,43.2,152.5,43.7z"/>
			<circle class="st9" cx="151.4" cy="40.4" r="1.1"/>
			<circle class="st9" cx="148.8" cy="33.2" r="1.4"/>
			<circle class="st9" cx="156.5" cy="38" r="1.1"/>
			<circle class="st6" cx="157.4" cy="45.2" r="0.5"/>
			<circle class="st9" cx="151" cy="48.7" r="1.1"/>
			<path class="st9" d="M137.8,43.7c0,0.4-0.3,0.6-0.6,0.6c-0.4,0-0.6-0.3-0.6-0.6s0.3-0.6,0.6-0.6
				C137.5,43.1,137.8,43.4,137.8,43.7z"/>
			<path class="st9" d="M141.2,42c0,0.5-0.4,0.9-0.9,0.9c-0.5,0-0.9-0.4-0.9-0.9c0-0.5,0.4-0.9,0.9-0.9
				C140.8,41.1,141.2,41.5,141.2,42z"/>
			<path class="st9" d="M134.9,38.4c0,0.4-0.3,0.7-0.7,0.7c-0.4,0-0.7-0.3-0.7-0.7c0-0.4,0.3-0.7,0.7-0.7
				C134.6,37.6,134.9,38,134.9,38.4z"/>
			<path class="st13" d="M132.2,42.5c0,0,7.8,10.8,16.2,10c8.3-0.7,10.7-6.2,12.3-3c1.6,3.3,0.5,8-5.4,11.4
				c-9.1,5.3-20.2,0.2-23.6-4.7C128.1,51.4,126.4,42.9,132.2,42.5z"/>
		</g>
		<g>
			<path class="st7" d="M135.3,82.2c0,0-3.4-0.7-9.9,1.7c-6.5,2.4-5.8,14.5-1.4,18.1c4.3,3.6,9.9,5.6,9.9,5.6s-1.2,4.8,1.4,6.8
				c2.7,1.9,9.9,4.3,9.9,4.3s-0.5,4.3,2.9,7.7c3.4,3.4,9.2,3.4,10.4,2.4c1.2-1,2.9-2.2,2.9-2.2s7.5,5.8,10.4,4.8c2.9-1,6-2.4,6-2.4
				s6.8,4.1,12.3,3.6c5.6-0.5,11.8-2.4,12.1-6.5c0.2-4.1-3.1-10.4-3.9-11.6c-0.7-1.2-1.9-4.6-1.9-4.6s1-1.7-1.4-4.6
				c-2.4-2.9-8.9-8.5-9.4-9.4s-0.7-5.8-2.2-8c-1.4-2.2-16.7-9.7-21-9.9c-4.3-0.2-8.2,1.9-8.2,1.9s-1-0.5-7.7-1.7
				C139.6,77.1,136,78.8,135.3,82.2z"/>
			<path class="st5" d="M135.3,96.1c-0.2,2.9-0.5,6.1-1,8.8"/>
			<path class="st5" d="M135.5,85.6c0,0,0.1,3.6-0.1,8.2"/>
			<path class="st5" d="M151.9,103.3c-3.6,10.3-6.7,15.4-6.7,15.4"/>
			<path class="st5" d="M154.6,82.7c0,0,1.9,6.5-1.9,18.4"/>
			<path class="st5" d="M179.8,103.1c-3.6,6.3-9.9,16.5-15.8,22.4"/>
			<path class="st5" d="M182.9,97.7c0,0-0.6,1.1-1.6,2.9"/>
			<path class="st5" d="M190.8,117.8c-3.6,4-9.3,9.8-13.1,11.3"/>
			<path class="st5" d="M194.4,113.6c0,0-0.8,1-2.1,2.5"/>
		</g>
	</g>
</g>
<g id="Dish_1_1_">
	<g>
		
			<ellipse transform="matrix(0.7071 -0.7071 0.7071 0.7071 -114.0945 126.0724)" class="st6" cx="95.1" cy="200.8" rx="59.9" ry="59.9"/>
		<g>
			<path class="st6" d="M106.7,202.9c0,0-5.1,2.3-6.5,8.8c-1.4,6.5,1.3,20.3,9.3,23.2c8,2.9,17.5,2.3,23.9-5.8
				c6.4-8,6.2-8.5,7.7-12.7c1.5-4.2-2.7-14.7-8.4-18.2c-5.7-3.5-15-4.3-15.8-2.7c-0.8,1.6-0.6,2.5-1.8,3.2
				C114,199.5,108.6,201.8,106.7,202.9z"/>
			<path class="st7" d="M117.5,205.5c0,0-3.2-0.6-5,2c-1.8,2.7-2.3,6.1-1.1,7.7c1.2,1.6,0.4,3.6,2.4,5.4c1.9,1.7,7.5,3.3,11.2,0.5
				c3.6-2.8,7.4-11.7,2.5-14.8C122.4,203.3,118.4,200.8,117.5,205.5z"/>
		</g>
		<g>
			<path class="st6" d="M105.1,210.3c0,0-8.1-3.4-13.9-3c-5.8,0.4-12.2,3-15,8c-2.8,5-3.5,9.9-2.3,13.6c1.3,3.8,3.8,4.4,4.3,7.9
				c0.5,3.5,6.3,9.7,14.8,9.2c8.5-0.4,15.7-3.5,17.9-14.2S110.7,214.3,105.1,210.3z"/>
			<path class="st7" d="M91.9,218.9c0,0-4.3,0.4-5.9,4c-1.6,3.5-0.6,8.6,1.9,10.5c2.6,1.9,7.8,3.3,9.7,2.1c1.8-1.2,5.1-3.5,5.5-7.2
				c0.3-3.6-0.9-7.4-2.9-8.5C98.1,218.8,93.6,218.2,91.9,218.9z"/>
		</g>
		<g>
			<g>
				<path class="st7" d="M68.9,226.5c-2,0-3.9-1.1-4.9-2.9c-11.8-21.8-16.4-39.4-16.6-40.2c-0.8-3,1-6.1,4.1-6.8
					c3-0.8,6.1,1,6.8,4.1c0.1,0.3,4.5,17.2,15.6,37.6c1.5,2.7,0.5,6.1-2.2,7.6C70.7,226.2,69.8,226.5,68.9,226.5z"/>
			</g>
			<path class="st11" d="M64.6,201.1l-10-7.4c0,0,4.2,1.4,6,2.7c1.8,1.3,3.2,3,3.2,3"/>
			<path class="st11" d="M68.7,212.6l-10-7.4c0,0,4.2,1.4,6,2.7c1.8,1.3,3.2,3,3.2,3"/>
			<path class="st11" d="M72.2,222.7l-10-7.4c0,0,4.2,1.4,6,2.7c1.8,1.3,3.2,3,3.2,3"/>
			<path class="st11" d="M58.3,186.7l-10-7.4c0,0,4.2,1.4,6,2.7c1.8,1.3,3.2,3,3.2,3"/>
		</g>
		<g>
			<g>
				<path class="st7" d="M77.7,212.1c-2,0-3.9-1.1-4.9-2.9c-11.8-21.8-16.4-39.4-16.6-40.2c-0.8-3,1-6.1,4.1-6.8
					c3-0.8,6.1,1,6.8,4.1c0.1,0.3,4.5,17.2,15.6,37.6c1.5,2.7,0.5,6.1-2.2,7.6C79.5,211.9,78.6,212.1,77.7,212.1z"/>
			</g>
			<path class="st11" d="M73.4,186.8l-10-7.4c0,0,4.2,1.4,6,2.7c1.8,1.3,3.2,3,3.2,3"/>
			<path class="st11" d="M77.5,198.2l-10-7.4c0,0,4.2,1.4,6,2.7c1.8,1.3,3.2,3,3.2,3"/>
			<path class="st11" d="M81,208.3l-10-7.4c0,0,4.2,1.4,6,2.7c1.8,1.3,3.2,3,3.2,3"/>
			<path class="st11" d="M67.1,172.3l-10-7.4c0,0,4.2,1.4,6,2.7c1.8,1.3,3.2,3,3.2,3"/>
		</g>
		<g>
			<g>
				<path class="st6" d="M98,189.1c0,0,4.6,8.7,4.7,9.9c0.2,1.2,2.7,0.4,2.7,0.4s20.8-8.4,24.7-11.5c3.9-3.1,11.5-4.7,11.3-7
					c-0.3-2.2-7.3-15.7-10.2-20.3c-3-4.6-6-12.7-8.2-13.5c-2.2-0.8-6.4,2.5-11.5,5.3c-5.1,2.8-19.4,6.5-20.3,10.4
					C90.1,166.8,98,189.1,98,189.1z"/>
				<path class="st12" d="M141.4,180.9c-0.3-2.2-6.8-14.8-9.9-19.8c3.1,6.4,7.3,15.3,7.6,16.1c0.4,1.3,0.8,3.3-0.1,4.1
					c-0.9,0.8-3.6,1.4-6.1,2.3c-2.4,0.9-26.5,12.8-26.5,12.8s-2.1,0.9-2.6,0.1c-0.5-0.8-8.8-20.9-11.6-28.6c-0.5-1.2-0.8-2.2-1-3.1
					c0.8,6.8,6.9,24.1,6.9,24.1s4.6,8.7,4.7,9.9c0.2,1.2,2.7,0.4,2.7,0.4s20.8-8.4,24.7-11.5C134,184.8,141.6,183.1,141.4,180.9z"/>
			</g>
			<g>
				<path class="st6" d="M78.8,149.5c0,0-3.4-0.6-3.4,3.2s-0.9,35.9,0.5,37.7c1.4,1.9,4,2,5.4,1.9c1.4-0.2,24.4-1.4,28.3-1.1
					c3.9,0.3,4.3-0.5,4.3-3.2s1.7-36.2,0.9-37.1c-0.8-0.9-1.2-1.5-2.8-1.5c-1.5,0-17,0.2-21.8,0.2C85.4,149.5,78.8,149.5,78.8,149.5
					z"/>
				<path class="st12" d="M113.9,188c0-2.8,1.7-36.2,0.9-37.1c-0.5-0.6-0.9-1.1-1.5-1.3c-0.1,0-0.2,0-0.2,0s0.3,0.7,0.6,2.1
					c0.3,1.4-1.1,34.8-1.3,36.5c-0.2,1.7-2.5,1.1-8.1,1.1s-16.5-0.2-20,0.7c-3.5,0.9-6,0.3-7.3-0.4c-1-0.5-1.6-3.6-1.8-4.8
					c0.1,3,0.3,5.1,0.6,5.6c1.4,1.9,4,2,5.4,1.9c1.4-0.2,24.4-1.4,28.3-1.1C113.4,191.6,113.9,190.8,113.9,188z"/>
			</g>
			<path class="st11" d="M80.7,153.6c0,0.5-0.4,0.9-0.9,0.9s-0.9-0.4-0.9-0.9s0.4-0.9,0.9-0.9S80.7,153.1,80.7,153.6z"/>
			<circle class="st11" cx="86.4" cy="156.9" r="1.1"/>
			<circle class="st11" cx="81.6" cy="161.4" r="0.7"/>
			<circle class="st11" cx="86.3" cy="163.6" r="0.7"/>
			<path class="st11" d="M106.2,156.7c0,0.5-0.4,1-1,1c-0.5,0-1-0.4-1-1c0-0.5,0.4-1,1-1C105.8,155.7,106.2,156.1,106.2,156.7z"/>
			<circle class="st11" cx="133.2" cy="180.2" r="1.1"/>
			<circle class="st11" cx="129.1" cy="174.7" r="0.8"/>
			<path class="st11" d="M123.5,165.9c0,0.3-0.3,0.6-0.6,0.6c-0.3,0-0.6-0.3-0.6-0.6c0-0.3,0.3-0.6,0.6-0.6
				C123.3,165.2,123.5,165.5,123.5,165.9z"/>
			<path class="st11" d="M128.5,167.5c0,0.5-0.4,0.9-0.9,0.9c-0.5,0-0.9-0.4-0.9-0.9s0.4-0.9,0.9-0.9
				C128.1,166.6,128.5,167,128.5,167.5z"/>
		</g>
	</g>
</g>
<g id="Character_1_">
	<g>
		<path class="st13" d="M236.5,157c0,0-6.7-8.8-15-6.3c-8.3,2.5-5.7,11.6-8,13c-2.3,1.4-15,0.7-17.6,9.2c-2.7,8.5,2,18-0.3,21.1
			s-18.6-3.5-22.6,14.1c-4,17.6,10.7,20.1,7.3,24.3c-3.3,4.2-6.3,5.3-5,11.3c1.3,6,8.3,4.9,7.3,9.5c-1,4.6-6.7,6-3.3,14.8
			c3.3,8.8,11.7,5.6,16,7c4.3,1.4,4.7,6.7,12.7,7c8,0.4,16.6-6,19-4.9c2.3,1.1,65.9,0.4,75.6-3.2c9.7-3.5,19-3.9,20.6-11.6
			c1.7-7.8-1.3-7.8,4.3-12c5.7-4.2,5.7-13.7,1.7-19.4c-4-5.6-6.3-7-5-13.7c1.3-6.7,6.7-7.8,1.3-16.9c-5.3-9.2-12-10.9-12.7-13.4
			c-0.7-2.5-2.6-19.5-13.2-26.1c-6.5-4.1-19.8-3.5-25.5-4.5c-5.7-1.1-6.3-9.9-19.3-11.6C241.8,142.9,235.8,151.7,236.5,157z"/>
		<path class="st14" d="M366.6,392.7c-1-9-5.3-27.6-8.7-38.3c-3.3-10.7-12.3-50.9-18-63.3c-5.7-12.3-21-19-32.6-20.3
			c-11.7-1.3-22.6,5.3-22.6,5.3c-6.3,2.4-27.5,18.1-31.6,21.1c-4.1-3-25.3-18.7-31.6-21.1c0,0-11-6.7-22.6-5.3
			c-11.7,1.3-27,8-32.6,20.3c-5.7,12.3-14.7,52.6-18,63.3c-3.3,10.7-7.7,29.3-8.7,38.3c-1,9,16,31.3,21.6,31.6
			c5.7,0.3,29.3-34,29.3-34l-5,31.3h66.9h1.4h66.9l-5-31.3c0,0,23.6,34.3,29.3,34C350.6,424,367.6,401.7,366.6,392.7z"/>
		<g>
			<path class="st6" d="M233.8,167.5c0,0,2.2,5.2,6.9,7.7c4.7,2.5,14.9-4.1,13.8,0.6c-1.1,4.7-3.6,9.7,3,12.4
				c6.6,2.8,14.1-3.9,14.4,1.1c0.3,5-1.1,11,4.4,12.7c5.5,1.7,8.6-0.6,9.4,0.6c0.8,1.1,3.6,4.7,3.9,6.6c0.3,1.9,4.7,26,3,34.5
				s-11.6,28.4-10.8,33.4c0.8,5,3.9,6.1,3.9,15.7c0,9.7-14.1,30.9-24.9,35.1c-10.8,4.1-24.6-7.7-30.4-21.3c-5.8-13.5-8-27.6-8-32.6
				c0-5-8.3-15.2-9.9-21.3s-4.6-37.7-3.3-46.3c1.9-11.3-0.1-13.4,5.2-17.3c5.2-3.9,10.2-6.3,11.9-10.5
				C228,174.7,233.8,167.5,233.8,167.5z"/>
			<path class="st13" d="M271.7,277.7c0,0-10.3,7.8-23.4,17.5c-13.1,9.7-28.2,4.3-28.2,4.3l6.7-22.3c0,0,16.5,7.6,24.7,8.3
				C259.8,286.1,271.7,277.7,271.7,277.7z"/>
			<path class="st5" d="M245.4,226.6c0,0-2.2,4.1-2.2,6.6c0,2.5,3.3,3.6,4.4,3.9"/>
			<path class="st5" d="M233.6,251.4c0,0,3,3,13.5,2.5c10.5-0.6,16-4.4,19.6-7.7"/>
			<path class="st5" d="M237.1,205c-0.9,0.1-11.9-6.8-20.6,5.7"/>
			<path class="st5" d="M255.9,203.7c0,0,11.5-9.1,21.9,0.3"/>
			<ellipse class="st13" cx="233" cy="214.5" rx="2.9" ry="4"/>
			<path class="st5" d="M222.8,222.2c0,0-2.3-11,10.2-11.6"/>
			<path class="st13" d="M271.7,211.4c0,2.2-1.3,4-2.9,4c-1.6,0-2.9-1.8-2.9-4c0-2.2,1.3-4,2.9-4
				C270.4,207.5,271.7,209.2,271.7,211.4z"/>
			<path class="st5" d="M259.2,218.3c0,0-2.5-12.3,10.6-10.4"/>
			<path class="st5" d="M219.3,227.2c0,0,6.9-2.8,12.5-1.9"/>
			<path class="st5" d="M265.7,220.8c0,0,9.9-1.1,14.2,0.9"/>
		</g>
		<g>
			<g>
				<path class="st6" d="M201.3,212.4c0,0-7.5,19.2-10.1,29.8c-2.7,10.6-3,11.9-0.4,14.9c2.7,3,20.1,27,20.4,28.2
					c0.4,1.2-3.4,9.4-3.4,9.4l13.8,9.9c0,0,11.7-17.6,11.9-24.1c0.2-6.6-5.7-15.6-8-17.7c-2.3-2.1-17.4-17.6-17.4-17.6
					s5.5-15.1,5.3-21.8c-0.2-6.7-3.7-5.9-3.7-5.9s-0.7-7.6-2.1-8.7c-1.4-1.1-3.4,0.9-3.7,1.6C203.6,211.2,201.3,212.4,201.3,212.4z"
					/>
				<path class="st5" d="M209.8,217.6c0,0-6.7,18.5-9,23.6c-2.3,5.1-3,6.9-1.4,8.7c1.6,1.8,2.3,2.8,2.3,2.8"/>
				<path class="st5" d="M204,210.5c0,0-5.7,14.4-6.6,19.5c-0.9,5.1-6.4,17.9-5.5,20.4"/>
				<path class="st5" d="M192.8,251.8c0,0-0.5,0.7,3.2,3.2"/>
			</g>
			<path class="st14" d="M202.1,290.3c0,0,10.8,4.2,18,9.1c7.2,5,9.1,7.2,8.6,9.4c-0.6,2.2-21.6,51.5-24.7,62.1
				c-3,10.5-11.4,34.4-24.4,45.2c-13,10.8-24.9,9.4-29.1,5.3s-13.3-16.9-11.4-26.3c1.9-9.4,0.3-19.7,21.6-44.3
				c10.5-12.2,34.4-51.3,36-53.5C198.5,295,198.8,289,202.1,290.3z"/>
		</g>
		<g>
			<g>
				<path class="st6" d="M301.4,212.2c0,0,7.9,19,10.8,29.5c2.9,10.6,3.3,11.8,0.7,14.9c-2.6,3.1-19.4,27.5-19.7,28.7
					s3.6,9.3,3.6,9.3l-13.6,10.3c0,0-12.1-17.3-12.5-23.8c-0.3-6.6,5.3-15.8,7.5-17.9s16.9-18,16.9-18s-5.9-14.9-5.9-21.7
					c0-6.7,3.6-5.9,3.6-5.9s0.5-7.6,1.9-8.7c1.4-1.1,3.4,0.8,3.8,1.5C299.1,211,301.4,212.2,301.4,212.2z"/>
				<path class="st5" d="M293.1,217.5c0,0,7.2,18.3,9.6,23.4c2.4,5.1,3.2,6.8,1.6,8.7c-1.6,1.8-2.2,2.9-2.2,2.9"/>
				<path class="st5" d="M298.7,210.3c0,0,6,14.2,7,19.3c1,5.1,6.8,17.8,6,20.3"/>
				<path class="st5" d="M310.9,251.3c0,0,0.5,0.7-3.1,3.3"/>
			</g>
			<path class="st14" d="M303,290.3c0,0-10.8,4.2-18,9.1c-7.2,5-9.1,7.2-8.6,9.4s21.6,51.5,24.7,62.1c3,10.5,11.4,34.4,24.4,45.2
				c13,10.8,24.9,9.4,29.1,5.3s13.3-16.9,11.4-26.3c-1.9-9.4-0.3-19.7-21.6-44.3c-10.5-12.2-34.4-51.3-36-53.5
				C306.6,295,306.4,289,303,290.3z"/>
		</g>
		<path class="st5" d="M245.1,373.7c1.6,2.5,3.4,5,5.3,7.4"/>
		<path class="st5" d="M226.8,326.4c0,0,2.8,20,14.3,40.8"/>
		<path class="st5" d="M222.1,340.3c0,0,5.1,36.2,15.8,52.4"/>
		<path class="st5" d="M275.8,344.7c-1.8,7.2-4.6,15.2-8.7,22"/>
		<path class="st5" d="M279.2,324c0,0-0.3,5.5-1.7,13.1"/>
	</g>
</g>
<g id="Dish_1">
	<g>
		<ellipse class="st13" cx="253.4" cy="439.1" rx="78.4" ry="23.5"/>
		<ellipse class="st6" cx="253.4" cy="436.2" rx="82.8" ry="23.5"/>
		<ellipse class="st6" cx="253.4" cy="435.3" rx="79.5" ry="21.7"/>
		<ellipse class="st5" cx="253.4" cy="439.6" rx="59.9" ry="16.7"/>
	</g>
	<path class="st12" d="M196.2,458.1c0,0,41.8-17.5,46.2-19.3c4.5-1.9,6.4-0.7,6.4-0.7s16.2-8,29.1-14.5
		c13.8-6.9,22.2-12.2,27.9-12.9c5.7-0.7,5.2,4.8,1.6,7.5c-3.5,2.6-34.7,13.3-40.9,16.1c-6,2.6-11.6,4.7-13.4,5.8
		c-1.8,1.1-11.4,4.7-13,5.5c-1.6,0.7-18.6,8.5-27.8,11.4c-8.9,2.8-12.6,2.8-14.7,2.7C195.5,459.3,195.7,458.9,196.2,458.1z"/>
	<path class="st12" d="M297.8,452.9c-2.5-3-10-8.2-11-8.3c-1-0.2-1.6,0-1.1,0.8c0.5,0.7,5.1,3.8,8,6.4c2.2,1.9,4.2,4,5,5l-0.7,0.3
		c-0.5-0.5-1.5-1.5-2.6-2.7c-1.9-2.2-10.5-8.1-11.1-8.3c-0.6-0.3-1.6-0.4-1.6,0.2c0,0.5,3.7,2.6,7.5,5.5c2.9,2.2,5.7,4.9,6.7,5.9
		l-0.6,0.3c-0.8-0.7-2.7-2.2-5.1-4.1c-3.2-2.5-8.6-6.3-9.4-6.7c-0.7-0.4-1.5-0.3-1.4,0.1c0.1,0.4,4.1,2.7,7.5,5.3
		c2.7,2.1,6.1,5,7.2,6l-0.8,0.3c0,0-9.4-7.8-14.4-10.2c-5.2-2.5-9.4-3.7-8.9-4.9c0,0-4.5-0.5-9.3-2.8c-4.9-2.4-29.9-13.8-41.6-18.5
		c-12.3-4.9-17.3-5.9-14.4-8.3c3-2.4,7.6-2.4,13.8,0.7c6.1,3,34.3,20.2,35.6,20.8c1.3,0.6,6.7,4.4,11.8,5.5c5.1,1.1,11.4-0.3,15.8,1
		c4.3,1.3,15.8,8.1,18,14l-0.5,0.2C299.9,455.5,299.2,454.5,297.8,452.9z"/>
</g>
</svg>
