<svg width="390" height="844" viewBox="0 0 390 844" fill="none" xmlns="http://www.w3.org/2000/svg">
<rect x="0.25" y="0.25" width="389.5" height="843.5" rx="9.75" fill="white"/>
<rect x="0.25" y="0.25" width="389.5" height="843.5" rx="9.75" stroke="#333333" stroke-width="0.5"/>
<path d="M155.78 434V411.375H158.593V431.5H169.093V434H155.78ZM191.093 422.688C191.109 429.844 186.89 434.312 181.093 434.312C175.281 434.312 171.078 429.844 171.093 422.688C171.078 415.531 175.281 411.062 181.093 411.062C186.89 411.062 191.109 415.531 191.093 422.688ZM173.812 422.688C173.828 428.516 177 431.672 181.093 431.688C185.187 431.672 188.359 428.516 188.375 422.688C188.359 416.844 185.187 413.688 181.093 413.688C177 413.688 173.828 416.844 173.812 422.688ZM210.688 418.438C209.719 415.531 207.516 413.688 204.282 413.688C200.282 413.688 197.11 416.844 197.094 422.688C197.11 428.516 200.282 431.672 204.469 431.688C208.282 431.672 210.922 429.141 210.969 425.125H205.063V422.656H213.719V425.094C213.719 430.703 209.86 434.312 204.469 434.312C198.422 434.312 194.36 429.844 194.375 422.688C194.36 415.531 198.469 411.062 204.282 411.062C209.063 411.062 212.75 414.062 213.594 418.438H210.688ZM237.095 422.688C237.111 429.844 232.892 434.312 227.095 434.312C221.282 434.312 217.079 429.844 217.095 422.688C217.079 415.531 221.282 411.062 227.095 411.062C232.892 411.062 237.111 415.531 237.095 422.688ZM219.814 422.688C219.829 428.516 223.001 431.672 227.095 431.688C231.189 431.672 234.361 428.516 234.376 422.688C234.361 416.844 231.189 413.688 227.095 413.688C223.001 413.688 219.829 416.844 219.814 422.688Z" fill="#BBBBBB"/>
</svg>
