<svg width="84" height="50" viewBox="0 0 84 50" fill="none" xmlns="http://www.w3.org/2000/svg">
<g clip-path="url(#clip0_12_1815)">
<path d="M24.6699 18.9599C24.7361 19.1363 24.7621 19.3253 24.7456 19.513C24.7291 19.7007 24.6706 19.8823 24.5747 20.0444C24.4787 20.2066 24.3477 20.3451 24.1912 20.4499C24.0346 20.5547 23.8564 20.623 23.6699 20.6499C17.5317 22.2458 11.2001 22.9728 4.85997 22.8099C2.69997 22.7599 1.53999 21.6499 1.49999 19.4899V18.9199L1.02001 2.63989C0.982097 2.44706 0.991269 2.24795 1.04686 2.05945C1.10246 1.87095 1.20273 1.69865 1.33922 1.55725C1.47571 1.41586 1.64438 1.30954 1.8308 1.24732C2.01722 1.1851 2.21597 1.16885 2.41002 1.19992H7.68993C8.68993 1.19992 9.02994 1.67989 9.07994 2.63989L9.22997 15.6999C13.6417 15.7248 18.0456 15.3229 22.38 14.4999C23.38 14.3099 23.82 14.5999 23.9599 15.4999L24.6699 18.9599Z" fill="#009A6E"/>
<path d="M34.9 19.3997L34.85 22.2297C34.85 23.2297 34.37 23.6697 33.41 23.6697H28.41C28.2143 23.6983 28.0146 23.6807 27.8269 23.6184C27.6392 23.5562 27.4685 23.4509 27.3286 23.311C27.1888 23.1712 27.0835 23.0006 27.0212 22.8129C26.959 22.6251 26.9414 22.4255 26.97 22.2297L26.6799 1.43973C26.6799 0.43973 27.1099 -0.000272623 28.0699 -0.000272623H33.9299C34.124 -0.0313488 34.3227 -0.0150974 34.5092 0.0471212C34.6956 0.10934 34.8641 0.21569 35.0006 0.357088C35.1371 0.498486 35.2375 0.670757 35.2931 0.859255C35.3487 1.04775 35.3579 1.2469 35.3199 1.43973V3.93973H39.59C39.814 3.92665 40.0383 3.96113 40.248 4.04093C40.4578 4.12073 40.6483 4.24402 40.807 4.40271C40.9657 4.5614 41.089 4.75188 41.1688 4.96164C41.2486 5.1714 41.2831 5.39568 41.27 5.61972V9.07971C41.2831 9.30375 41.2486 9.52804 41.1688 9.73779C41.089 9.94755 40.9657 10.138 40.807 10.2967C40.6483 10.4554 40.4578 10.5787 40.248 10.6585C40.0383 10.7383 39.814 10.7728 39.59 10.7597H35.13V12.5797H39.64C39.8641 12.5666 40.0883 12.6011 40.2981 12.6809C40.5079 12.7607 40.6982 12.884 40.8569 13.0427C41.0156 13.2014 41.139 13.3919 41.2188 13.6017C41.2985 13.8114 41.333 14.0357 41.3199 14.2597V17.7197C41.333 17.9438 41.2985 18.1681 41.2188 18.3778C41.139 18.5876 41.0156 18.778 40.8569 18.9367C40.6982 19.0954 40.5079 19.2187 40.2981 19.2985C40.0883 19.3783 39.8641 19.4128 39.64 19.3997H34.9Z" fill="#009A6E"/>
<path d="M66.6699 24.9599C66.7361 25.1363 66.7621 25.3253 66.7456 25.513C66.7291 25.7007 66.6706 25.8823 66.5747 26.0444C66.4787 26.2066 66.3477 26.3451 66.1912 26.4499C66.0346 26.5547 65.8564 26.623 65.6699 26.6499C59.5317 28.2458 53.2001 28.9728 46.86 28.8099C44.7 28.7599 43.54 27.6499 43.5 25.4899V24.9199L43.02 8.63989C42.9821 8.44706 42.9913 8.24795 43.0469 8.05945C43.1025 7.87095 43.2027 7.69865 43.3392 7.55725C43.4757 7.41586 43.6444 7.30954 43.8308 7.24732C44.0172 7.1851 44.216 7.16885 44.41 7.19992H49.6899C50.6899 7.19992 51.0299 7.67989 51.0799 8.63989L51.23 21.6999C55.6417 21.7248 60.0456 21.3229 64.38 20.4999C65.38 20.3099 65.82 20.5999 65.9599 21.4999L66.6699 24.9599Z" fill="#009A6E"/>
<path d="M76.9 25.3997L76.85 28.2297C76.85 29.2297 76.37 29.6697 75.41 29.6697H70.41C70.2143 29.6983 70.0146 29.6807 69.8269 29.6184C69.6392 29.5562 69.4685 29.4509 69.3286 29.311C69.1888 29.1712 69.0835 29.0006 69.0212 28.8129C68.959 28.6251 68.9414 28.4255 68.97 28.2297L68.6799 7.43973C68.6799 6.43973 69.1099 5.99973 70.0699 5.99973H75.9299C76.124 5.96865 76.3227 5.9849 76.5092 6.04712C76.6956 6.10934 76.8641 6.21569 77.0006 6.35709C77.1371 6.49849 77.2375 6.67076 77.2931 6.85925C77.3487 7.04775 77.3579 7.2469 77.3199 7.43973V9.93973H81.59C81.814 9.92665 82.0383 9.96113 82.248 10.0409C82.4578 10.1207 82.6483 10.244 82.807 10.4027C82.9657 10.5614 83.089 10.7519 83.1688 10.9616C83.2486 11.1714 83.2831 11.3957 83.27 11.6197V15.0797C83.2831 15.3038 83.2486 15.528 83.1688 15.7378C83.089 15.9476 82.9657 16.138 82.807 16.2967C82.6483 16.4554 82.4578 16.5787 82.248 16.6585C82.0383 16.7383 81.814 16.7728 81.59 16.7597H77.13V18.5797H81.64C81.8641 18.5666 82.0883 18.6011 82.2981 18.6809C82.5079 18.7607 82.6982 18.884 82.8569 19.0427C83.0156 19.2014 83.139 19.3919 83.2188 19.6017C83.2985 19.8114 83.333 20.0357 83.3199 20.2597V23.7197C83.333 23.9438 83.2985 24.1681 83.2188 24.3778C83.139 24.5876 83.0156 24.778 82.8569 24.9367C82.6982 25.0954 82.5079 25.2187 82.2981 25.2985C82.0883 25.3783 81.8641 25.4128 81.64 25.3997H76.9Z" fill="#009A6E"/>
<path d="M10.41 44.3104C10.0891 44.3326 9.76716 44.2858 9.46591 44.173C9.16465 44.0603 8.89099 43.8842 8.66354 43.6568C8.43609 43.4293 8.26006 43.1557 8.1473 42.8545C8.03455 42.5532 7.98776 42.2313 8.00997 41.9104L7.76998 29.1404C7.74436 28.8187 7.7888 28.4953 7.90036 28.1925C8.01191 27.8897 8.18792 27.6147 8.4161 27.3865C8.64429 27.1583 8.9192 26.9824 9.22201 26.8708C9.52482 26.7593 9.8482 26.7148 10.1699 26.7404L32.5899 26.3604C32.914 26.3238 33.2422 26.3607 33.55 26.4683C33.8579 26.576 34.1375 26.7517 34.3681 26.9823C34.5987 27.2129 34.7744 27.4925 34.882 27.8003C34.9897 28.1082 35.0266 28.4364 34.99 28.7604L34.6999 41.7604C34.7238 42.0817 34.6782 42.4044 34.566 42.7064C34.4538 43.0084 34.2778 43.2827 34.05 43.5105C33.8222 43.7383 33.548 43.9143 33.2459 44.0265C32.9439 44.1386 32.6212 44.1843 32.2999 44.1604L10.41 44.3104Z" fill="#009A6E"/>
<path d="M51.41 49.3104C51.0891 49.3326 50.7672 49.2858 50.4659 49.173C50.1647 49.0603 49.891 48.8842 49.6635 48.6568C49.4361 48.4293 49.2601 48.1557 49.1473 47.8545C49.0345 47.5532 48.9878 47.2313 49.01 46.9104L48.77 34.1404C48.7444 33.8187 48.7888 33.4953 48.9004 33.1925C49.0119 32.8897 49.1879 32.6147 49.4161 32.3865C49.6443 32.1583 49.9192 31.9824 50.222 31.8708C50.5248 31.7593 50.8482 31.7148 51.1699 31.7404L73.5899 31.3604C73.914 31.3238 74.2422 31.3607 74.55 31.4683C74.8579 31.576 75.1375 31.7517 75.3681 31.9823C75.5987 32.2129 75.7744 32.4925 75.882 32.8003C75.9897 33.1082 76.0266 33.4364 75.99 33.7604L75.6999 46.7604C75.7238 47.0817 75.6782 47.4044 75.566 47.7064C75.4538 48.0084 75.2778 48.2827 75.05 48.5105C74.8222 48.7383 74.548 48.9143 74.2459 49.0265C73.9439 49.1386 73.6212 49.1843 73.2999 49.1604L51.41 49.3104Z" fill="#009A6E"/>
<path d="M62.7801 35.3096C60.5178 35.4147 58.3045 36.0047 56.2901 37.0396C56.2056 37.0799 56.1311 37.1385 56.0722 37.2112C56.0132 37.2839 55.9712 37.3689 55.9491 37.4599C55.9271 37.5509 55.9255 37.6456 55.9447 37.7372C55.9639 37.8289 56.0033 37.9151 56.06 37.9896L58.81 41.6996C58.9062 41.8299 59.0471 41.9203 59.2057 41.9535C59.3643 41.9867 59.5295 41.9604 59.67 41.8796C60.6148 41.3317 61.6878 41.0432 62.7801 41.0432C63.8723 41.0432 64.9452 41.3317 65.89 41.8796C66.029 41.9597 66.1926 41.9857 66.3495 41.9525C66.5064 41.9192 66.6455 41.8292 66.74 41.6996L69.49 37.9896C69.5467 37.9151 69.5861 37.8289 69.6053 37.7372C69.6244 37.6456 69.623 37.5509 69.601 37.4599C69.579 37.3689 69.5369 37.2839 69.4779 37.2112C69.419 37.1385 69.3445 37.0799 69.26 37.0396C67.2489 36.0055 65.039 35.4155 62.7801 35.3096Z" fill="white"/>
<path d="M62.9399 41.7205C62.741 41.7205 62.5503 41.6415 62.4096 41.5008C62.269 41.3602 62.1899 41.1694 62.1899 40.9705V38.6905C62.1885 38.5916 62.2071 38.4935 62.2443 38.4019C62.2815 38.3103 62.3366 38.2271 62.4066 38.1572C62.4765 38.0873 62.5597 38.0321 62.6513 37.9948C62.7429 37.9576 62.841 37.9392 62.9399 37.9405C63.1388 37.9405 63.3296 38.0195 63.4703 38.1602C63.6109 38.3008 63.6899 38.4916 63.6899 38.6905V40.9705C63.6873 41.1686 63.6074 41.3579 63.4674 41.498C63.3273 41.6381 63.138 41.7179 62.9399 41.7205Z" fill="#009A6E"/>
<path d="M13.9199 35.9503C14.7994 37.0415 15.8984 37.9356 17.1456 38.5748C18.3929 39.2139 19.7606 39.5837 21.16 39.6603C24.2363 39.7306 27.2506 38.7891 29.74 36.9803C30.0756 36.7728 30.3181 36.4438 30.4169 36.0618C30.5156 35.6798 30.463 35.2744 30.27 34.9303C30.0684 34.6022 29.749 34.3636 29.3772 34.2632C29.0054 34.1628 28.6094 34.2083 28.27 34.3903C26.2889 35.8698 23.8827 36.6695 21.41 36.6703C20.3701 36.6123 19.3552 36.3282 18.4364 35.8377C17.5176 35.3472 16.7168 34.6621 16.09 33.8303C15.8087 33.5494 15.4275 33.3916 15.03 33.3916C14.6325 33.3916 14.2512 33.5494 13.97 33.8303C13.6985 34.1164 13.5471 34.4958 13.5471 34.8903C13.5471 35.2847 13.6985 35.6641 13.97 35.9503H13.9199Z" fill="white"/>
<path d="M14.9199 31.1796L10.9199 35.0496C10.6414 35.3321 10.4854 35.7129 10.4854 36.1096C10.4854 36.5063 10.6414 36.8871 10.9199 37.1696C11.2037 37.4457 11.5841 37.6002 11.98 37.6002C12.3759 37.6002 12.7563 37.4457 13.04 37.1696L17.04 33.2996C17.3161 33.0159 17.4706 32.6356 17.4706 32.2396C17.4706 31.8437 17.3161 31.4634 17.04 31.1796C16.7551 30.9058 16.3752 30.7529 15.98 30.7529C15.5848 30.7529 15.2049 30.9058 14.9199 31.1796Z" fill="white"/>
</g>
<defs>
<clipPath id="clip0_12_1815">
<rect width="84" height="50" fill="white"/>
</clipPath>
</defs>
</svg>
